<svg width="376" height="56" viewBox="0 0 376 56" fill="none" xmlns="http://www.w3.org/2000/svg">
<g clip-path="url(#clip0_39_105)">
<path d="M56.13 0H0V56.13H56.13V0Z" fill="url(#paint0_linear_39_105)"/>
<path d="M54.3901 28.39C54.3901 40.11 54.9301 52.1 54.9301 52.1C54.9596 52.3797 54.9298 52.6626 54.8426 52.93C54.7554 53.1974 54.6128 53.4435 54.424 53.652C54.2353 53.8606 54.0047 54.027 53.7472 54.1404C53.4898 54.2538 53.2113 54.3116 52.9301 54.31H4.38006C3.29006 54.31 2.54006 53.31 2.38006 52.1C1.38978 43.5064 0.928912 34.8601 1.00006 26.21C1.00006 10.56 2.40006 3.21 2.40006 3.21C2.58006 1.91 3.30006 1 4.38006 1H53.0001C53.2773 1.01148 53.5494 1.07803 53.8006 1.19578C54.0518 1.31352 54.2771 1.48011 54.4633 1.68582C54.6494 1.89153 54.7928 2.13225 54.8849 2.39393C54.9771 2.65562 55.0162 2.93303 55.0001 3.21C55.0001 3.21 54.3901 16.67 54.3901 28.39Z" fill="url(#paint1_linear_39_105)"/>
<path d="M43.58 15.16C40.11 17.16 39.05 17.36 35.28 19.62L35.46 19.2C36.9778 17.6524 38.3627 15.9798 39.6 14.2C35.5282 14.3743 31.4744 14.8421 27.47 15.6V15.6L27.66 15.21C31.643 13.4981 35.826 12.2953 40.11 11.63C39.35 10.57 33.2 7.23999 31.66 6.62999L31.84 6.23999C36.5794 6.87846 41.1675 8.35479 45.39 10.6C46.8386 10.2475 48.3198 10.0464 49.81 9.99999C49.81 9.99999 49.5 11.27 47.2 12.85C47.77 14.38 46.4 22.85 45.27 25.09C45.21 21.56 44.9 17.1 43.58 15.16Z" fill="url(#paint2_linear_39_105)"/>
<path d="M18.22 45.5L18.4 45.11C16.56 44.39 14.71 43.83 13.22 42.42C13.6815 41.1345 14.3138 39.9169 15.1 38.8V38.8L15.28 38.4C13.7 38.64 12.28 39.22 10.89 39.49C9.80997 37.59 9.38997 34.99 8.88997 32.49L8.70997 32.88C8.35523 35.23 8.35523 37.62 8.70997 39.97V39.97C7.67592 40.1587 6.6541 40.4092 5.64997 40.72L5.46997 41.11C6.8556 41.9895 8.2951 42.781 9.77997 43.48V43.48C10.539 45.2344 11.6327 46.824 13 48.16L13.18 47.77C12.8192 46.7571 12.6562 45.6843 12.7 44.61V44.61C14.4909 45.1563 16.3481 45.4557 18.22 45.5V45.5Z" fill="url(#paint3_linear_39_105)"/>
<path d="M23.3399 17.3101C22.8092 18.2911 22.361 19.3147 21.9999 20.3701H21.8599C25.1409 20.8369 28.3251 21.8296 31.2899 23.3101L31.1099 23.7001C28.3101 23.1157 25.4417 22.9305 22.5899 23.1501V23.1501C21.9073 23.1612 21.2314 23.2862 20.5899 23.5201C19.7624 25.7202 19.1757 28.0035 18.8399 30.3301L18.6599 30.7201C17.8399 28.7201 16.6599 24.8101 16.6599 24.8101C14.3999 26.0201 9.18994 30.9101 9.18994 30.9101C10.6394 27.8176 12.604 24.994 14.9999 22.5601V22.5601C13.9999 21.5601 11.3799 21.0401 9.46994 20.9601L9.64994 20.5701C11.3892 20.2219 13.1564 20.0311 14.9299 20.0001V20.0001C15.98 19.9576 17.0317 19.9743 18.0799 20.0501V20.0501C19.6427 18.81 21.4281 17.88 23.3399 17.3101V17.3101Z" fill="url(#paint4_linear_39_105)"/>
<path d="M28.8401 41.94C27.9301 43.17 27.1601 44.14 26.1601 45.26C24.6388 45.5258 23.0921 45.6164 21.5501 45.53L21.3701 45.92C22.3514 46.4232 23.3982 46.7867 24.4801 47V47C23.5788 47.7185 22.6263 48.3702 21.6301 48.95L21.4501 49.34C23.4682 48.8887 25.4136 48.1583 27.2301 47.17V47.17C28.0141 47.203 28.7992 47.146 29.5701 47V47L29.7501 46.61C29.6401 46.21 29.2901 45.97 29.1801 45.42C30.6409 44.266 32.0209 43.013 33.3101 41.67V41.67L33.5001 41.28C32.0774 42.3736 30.573 43.3565 29.0001 44.22V44.22C28.9301 43.45 28.8801 42.8 28.8401 41.94Z" fill="url(#paint5_linear_39_105)"/>
<path d="M43.7599 14.76C40.2999 16.76 39.2399 16.97 35.4699 19.22C37.0648 17.5593 38.5072 15.7588 39.7799 13.84C35.7112 14.0107 31.6604 14.4786 27.6599 15.24V15.24C31.6691 13.3313 35.9226 11.9852 40.2999 11.24C39.5399 10.19 33.3799 6.84999 31.8499 6.23999C36.7299 6.61999 42.6899 8.43999 45.5799 10.24C47.0298 9.89466 48.5104 9.69369 49.9999 9.63999V9.63999C49.4684 10.8593 48.5372 11.861 47.3599 12.48V12.48C47.9399 14.02 46.5599 22.48 45.4299 24.72C45.3999 21.17 45.0899 16.7 43.7599 14.76Z" fill="white"/>
<path d="M18.4001 45.11C16.5322 44.4578 14.8269 43.4107 13.4001 42.04C13.8675 40.7521 14.503 39.5315 15.2901 38.41V38.41C13.6701 38.65 12.4801 38.83 11.0801 39.1C9.98728 37.0446 9.23422 34.826 8.85011 32.53V32.53C8.49556 34.8834 8.49556 37.2766 8.85011 39.63V39.63C7.74063 39.9204 6.65697 40.3017 5.61011 40.77V40.77C6.99103 41.6428 8.42366 42.4309 9.90011 43.13V43.13C10.6833 44.8796 11.8009 46.4592 13.1901 47.78V47.78C12.8446 46.6304 12.7424 45.4214 12.8901 44.23V44.23C14.6783 44.7723 16.532 45.0683 18.4001 45.11V45.11Z" fill="white"/>
<path d="M23.5801 17C22.9081 17.9164 22.3756 18.9274 22.0001 20V20C25.27 20.5002 28.4116 21.6312 31.2501 23.33V23.33C28.4508 22.7414 25.5818 22.5562 22.7301 22.78V22.78C22.0492 22.7913 21.3743 22.9094 20.7301 23.13V23.13C19.8326 25.4553 19.1823 27.8686 18.7901 30.33V30.33C17.9701 28.33 16.7901 24.42 16.7901 24.42C14.5301 25.63 9.32007 30.53 9.32007 30.53C10.7519 27.4403 12.7036 24.6193 15.0901 22.19V22.19C14.0901 21.19 11.4701 20.67 9.55007 20.59C11.3355 20.0188 13.1878 19.6826 15.0601 19.59V19.59C16.1104 19.5524 17.162 19.5724 18.2101 19.65V19.65C19.8144 18.4318 21.6372 17.5323 23.5801 17V17Z" fill="white"/>
<path d="M29 41.55C28.16 42.7015 27.2622 43.8096 26.31 44.87V44.87C24.7544 45.3241 23.1404 45.5465 21.52 45.53V45.53C22.5017 46.0322 23.5484 46.3956 24.63 46.6101V46.6101C23.7006 47.4766 22.6968 48.2596 21.63 48.9501V48.9501C23.6488 48.4961 25.5943 47.7623 27.41 46.7701V46.7701C28.1961 46.811 28.9843 46.7641 29.76 46.6301C29.5924 46.0957 29.4588 45.5513 29.36 45V45C30.8254 43.8657 32.2088 42.6293 33.5 41.3V41.3C32.1387 42.2711 30.6929 43.1178 29.18 43.8301V43.8301C29.1 43.0601 29.06 42.41 29 41.55Z" fill="white"/>
<path d="M70.2399 8.53996C70.3599 10.54 70.4799 15.74 70.4799 17.63C70.4799 19.52 70.4799 25.17 70.1699 27.63V27.83H79.2399C83.6999 27.83 88.4099 26.44 88.4099 22.48C88.4099 20 86.6199 18.17 83.2599 17.17C85.7499 16.5 87.4099 14.8 87.4099 12.86C87.4099 9.62996 83.6999 8.40996 80.2099 8.32996H70.2099L70.2399 8.53996ZM77.2399 10.54C81.0199 10.54 82.4099 11.34 82.4099 13.4C82.4231 13.9324 82.2418 14.4515 81.8999 14.86C81.3781 15.3321 80.7562 15.68 80.0807 15.8774C79.4053 16.0748 78.6939 16.1167 77.9999 16H77.9099L76.8199 18.8H77.8799C78.7636 18.7146 79.6552 18.8264 80.4904 19.1273C81.3257 19.4282 82.0837 19.9107 82.7099 20.54C83.1284 21.0389 83.3584 21.6688 83.3599 22.32C83.3599 24.47 81.4699 25.58 77.7199 25.58C77.0899 25.58 76.0699 25.58 75.4299 25.58C75.3199 22.71 75.2699 18.82 75.2699 17.65C75.2699 16.29 75.3599 13.27 75.4299 10.65C76.0315 10.5526 76.6406 10.5091 77.2499 10.52L77.2399 10.54Z" fill="black"/>
<path d="M109.33 8.35999H104.92L105.1 13.28C105.18 15.71 105.27 18.21 105.44 20.64C104.946 19.5298 104.31 18.4879 103.55 17.54C103.55 17.47 98.9599 10.42 97.3699 8.40999H92.1899V8.58999C92.3499 10.59 92.4199 15.79 92.4199 17.68C92.4199 19.57 92.4199 25.22 92.1799 27.68V27.88H96.7399V27.68C96.4799 22.92 96.4799 18.12 96.4799 13.46C96.71 14.2257 97.0758 14.9438 97.5599 15.58C97.6199 15.71 105.48 27.15 105.86 27.8V27.88H109.51V27.68C109.23 25.18 109.21 19.37 109.21 17.68C109.21 15.99 109.33 10.68 109.45 8.58999L109.51 8.40999L109.33 8.35999Z" fill="black"/>
<path d="M114.6 8.54005C114.78 10.54 114.85 15.74 114.85 17.63C114.85 19.52 114.85 25.17 114.58 27.63V27.83H120V27.63C119.82 25.83 119.72 22.39 119.7 19.77L120.7 19.82H121.47C128.61 19.82 132.08 17.93 132.08 13.95C132.08 9.43005 127.21 8.39005 123.14 8.30005H114.6V8.54005ZM121.29 10.71C123.84 10.71 125.61 11.18 126.45 12.25C126.854 12.7463 127.067 13.3706 127.05 14.01C127.05 16.83 123.87 17.44 121.22 17.44L120.14 17.38H119.7C119.7 16.73 119.7 15.87 119.7 14.91C119.7 13.68 119.7 12.23 119.76 10.91C120.268 10.8087 120.783 10.7419 121.3 10.71H121.29Z" fill="black"/>
<path d="M142.46 8.53998C142.63 10.54 142.73 15.74 142.73 17.63C142.73 19.52 142.73 25.17 142.43 27.63V27.83H147.86V27.63C147.69 25.83 147.59 22.39 147.59 19.77L148.59 19.82H149.38C156.46 19.87 160 18 160 14C160 9.47998 155.1 8.43998 151 8.34998H142.47L142.46 8.53998ZM149.14 10.71C151.69 10.71 153.46 11.18 154.32 12.25C154.723 12.7459 154.933 13.3712 154.91 14.01C154.91 16.83 151.74 17.44 149.12 17.44L148 17.38H147.55C147.55 16.73 147.55 15.86 147.55 14.91C147.55 13.67 147.55 12.23 147.6 10.91C148.108 10.8064 148.622 10.7396 149.14 10.71V10.71Z" fill="black"/>
<path d="M167.23 8.36004H167.16V8.46004C166.16 11.23 159.64 25.46 158.61 27.62L158.52 27.86H163.14V27.75C163.55 26.41 164.14 24.9 164.69 23.29L168.55 23.23H171.74H172.41C173.23 25.33 173.86 26.91 174.14 27.71L174.19 27.79H179.55L170.89 8.29004H167.22L167.23 8.36004ZM168.55 14.11C168.98 15.04 170.1 17.63 171.36 20.72H170.92H168.55H165.68C166.71 18.24 167.72 16 168.55 14.1V14.11Z" fill="black"/>
<path d="M181.73 8.53997C181.88 10.54 181.96 15.74 181.96 17.63C181.96 19.52 181.96 25.17 181.66 27.63V27.83H187.12V27.63C186.83 25.11 186.81 19.32 186.81 17.63C186.81 16.27 186.81 13.25 186.99 10.81C187.4 10.81 187.99 10.72 188.46 10.72C190.99 10.72 192.77 11.19 193.61 12.26C194.011 12.7564 194.217 13.3822 194.19 14.02C194.19 16.27 192.09 17.41 190.13 17.52C189.746 17.5369 189.36 17.5168 188.98 17.46L188.6 17.4L188.81 17.76C190.75 20.59 193.65 25.48 194.81 27.76V27.84H200.64L200.49 27.58C200.25 27.25 196.49 21.66 194.84 19.27L194.7 19.13C197.7 18.23 199.14 16.56 199.14 13.99C199.14 9.49997 194.27 8.42997 190.14 8.33997H181.64L181.73 8.53997Z" fill="black"/>
<path d="M208.42 8.35999H203.22V8.53999C203.35 10.54 203.46 15.74 203.46 17.63C203.46 19.36 203.46 25.15 203.19 27.63V27.83H208.58V27.63C208.37 25.11 208.31 19.32 208.31 17.63C208.31 15.75 208.44 10.63 208.58 8.53999V8.35999H208.42Z" fill="black"/>
<path d="M213.51 8.53996C213.67 10.54 213.76 15.74 213.76 17.63C213.76 19.52 213.76 25.17 213.49 27.63V27.83H222.57C227.01 27.83 231.74 26.44 231.74 22.48C231.74 20 229.94 18.17 226.56 17.17C229.05 16.5 230.73 14.8 230.73 12.86C230.73 9.62996 227.01 8.40996 223.55 8.32996H213.55L213.51 8.53996ZM220.51 10.54C224.32 10.54 225.71 11.34 225.71 13.4C225.725 13.9345 225.54 14.4554 225.19 14.86C224.5 15.73 223.04 16.18 221.25 16.07H221.16L220.16 18.82H221.16C222.043 18.7292 222.935 18.8355 223.772 19.1312C224.609 19.4269 225.37 19.9047 226 20.53C226.434 21.0209 226.673 21.6545 226.67 22.31C226.67 24.46 224.77 25.57 221.01 25.57C220.41 25.57 219.39 25.57 218.75 25.57C218.59 22.7 218.59 18.81 218.59 17.64C218.59 16.28 218.59 13.26 218.75 10.64C219.332 10.547 219.921 10.5069 220.51 10.52V10.54Z" fill="black"/>
<path d="M245.05 8.35997H241.4V8.44998C240.31 11.45 233.4 26.37 232.85 27.6L232.75 27.86H237.4V27.74C237.79 26.4 238.33 24.9 238.93 23.26L242.77 23.2L245.97 23.25H246.65C247.49 25.34 248.11 26.94 248.39 27.73V27.85H253.77L245.12 8.34998L245.05 8.35997ZM242.81 14.09C243.25 15 244.36 17.59 245.62 20.69H245.19H242.81L240 20.7C241 18.21 242 16 242.81 14.09Z" fill="black"/>
<path d="M255.34 13.4C255.34 16.83 258.77 18.2 261.81 19.47C264.17 20.42 266.65 21.41 266.65 23.04C266.684 23.4742 266.547 23.9044 266.27 24.24C265.7 24.91 264.55 25.24 262.72 25.09C260.58 24.9259 258.491 24.3486 256.57 23.39L255.67 22.96V27.2L256.28 27.35L256.64 27.41C258.436 27.8908 260.282 28.1593 262.14 28.21C267.87 28.21 271.29 25.92 271.29 22.15C271.29 18.6 267.76 17.22 264.64 15.98C262.34 15.05 259.96 14.13 259.96 12.61C259.96 12.17 259.96 10.89 262.96 10.89C264.867 11.0007 266.737 11.4582 268.48 12.24L269.58 12.7V8.44002L268.49 8.24002C266.887 7.88314 265.252 7.68552 263.61 7.65002C258.64 7.65002 255.34 10 255.34 13.4Z" fill="black"/>
<path d="M77.6401 35V36.84H72.4301V40.47H77.4301V42.18H72.4301V46H77.9201V47.84H70.3401V35H77.6401Z" fill="black"/>
<path d="M82.86 34V45.57C82.8454 45.6688 82.8539 45.7696 82.8846 45.8646C82.9153 45.9596 82.9675 46.0463 83.0372 46.1178C83.1068 46.1894 83.192 46.244 83.2861 46.2773C83.3803 46.3106 83.4808 46.3218 83.58 46.31C84.0162 46.3144 84.4464 46.2077 84.83 46L85 47.51C84.3446 47.8851 83.6049 48.0881 82.85 48.1C81.13 48.1 80.7 46.9 80.7 45.61V34.41L82.86 34Z" fill="black"/>
<path d="M97.08 35C100.6 35 102.49 36.86 102.49 41.26C102.49 46.01 100.38 47.89 97.02 47.89H92.73V35H97.08ZM94.82 46H96.95C99.04 46 100.33 45 100.33 41.23C100.33 37.8 99.09 36.79 96.95 36.79H94.82V46Z" fill="black"/>
<path d="M107.36 49.35C107.366 49.6872 107.3 50.0219 107.167 50.3319C107.034 50.6419 106.837 50.92 106.588 51.1479C106.34 51.3758 106.045 51.5482 105.725 51.6537C105.405 51.7592 105.065 51.7955 104.73 51.76C104.033 51.7552 103.347 51.5838 102.73 51.26L103.06 49.66C103.443 49.8395 103.857 49.9447 104.28 49.97C104.415 49.9861 104.552 49.9713 104.681 49.9267C104.81 49.8821 104.926 49.8089 105.023 49.7127C105.119 49.6164 105.192 49.4995 105.237 49.3709C105.281 49.2423 105.296 49.1052 105.28 48.97V38.08H107.39L107.36 49.35ZM107.36 34.6V36.77H105.25V34.6H107.36Z" fill="black"/>
<path d="M115.26 40.8001C115.26 39.8801 114.62 39.5101 113.75 39.5101C113.54 39.486 113.328 39.5067 113.127 39.5707C112.927 39.6347 112.742 39.7407 112.585 39.8815C112.428 40.0223 112.303 40.1949 112.217 40.3877C112.132 40.5805 112.089 40.7892 112.09 41.0001L110.24 40.8101C110.3 38.8101 111.96 37.8101 113.89 37.8101C116.02 37.8101 117.37 38.8101 117.37 40.5901V45.6901C117.37 46.1501 117.6 46.3501 117.93 46.3501C118.296 46.3267 118.645 46.1904 118.93 45.9601L119.06 47.4201C118.569 47.854 117.935 48.0893 117.28 48.0801C117.076 48.1036 116.87 48.0866 116.673 48.0298C116.476 47.973 116.292 47.8777 116.132 47.7493C115.972 47.621 115.839 47.4621 115.741 47.282C115.643 47.1019 115.581 46.9041 115.56 46.7001C115.161 47.1268 114.679 47.4689 114.145 47.7059C113.611 47.943 113.034 48.0702 112.45 48.0801C112.101 48.1042 111.751 48.0528 111.424 47.9292C111.097 47.8057 110.8 47.613 110.554 47.3642C110.308 47.1155 110.119 46.8166 109.999 46.4879C109.879 46.1593 109.832 45.8087 109.86 45.4601C109.86 42.9801 112.28 41.8701 115.25 41.8901L115.26 40.8001ZM115.26 43.4301C113.35 43.3701 111.93 44.0201 111.93 45.2101C111.912 45.3711 111.931 45.5342 111.985 45.6869C112.039 45.8397 112.128 45.9781 112.243 46.0917C112.359 46.2054 112.499 46.2913 112.652 46.343C112.806 46.3947 112.969 46.4108 113.13 46.3901C113.538 46.3627 113.937 46.254 114.303 46.0702C114.669 45.8865 114.994 45.6314 115.26 45.3201V43.4301Z" fill="black"/>
<path d="M128.18 38.08V39.35L123.18 46.22H128.25V47.86H120.54V46.64L125.54 39.72H120.63V38.08H128.18Z" fill="black"/>
<path d="M135.32 40.8001C135.32 39.8801 134.68 39.5101 133.81 39.5101C133.601 39.486 133.388 39.5067 133.187 39.5707C132.987 39.6347 132.802 39.7407 132.645 39.8815C132.488 40.0223 132.363 40.1949 132.277 40.3877C132.192 40.5805 132.149 40.7892 132.15 41.0001L130.29 40.8101C130.35 38.8101 132.01 37.8101 133.94 37.8101C136.07 37.8101 137.42 38.8101 137.42 40.5901V45.6901C137.42 46.1501 137.65 46.3501 137.98 46.3501C138.346 46.3267 138.695 46.1904 138.98 45.9601L139.11 47.4201C138.62 47.854 137.985 48.0893 137.33 48.0801C137.126 48.1036 136.92 48.0866 136.723 48.0298C136.526 47.973 136.342 47.8777 136.182 47.7493C136.022 47.621 135.889 47.4621 135.791 47.282C135.693 47.1019 135.631 46.9041 135.61 46.7001C135.211 47.1268 134.729 47.4689 134.195 47.7059C133.661 47.943 133.084 48.0702 132.5 48.0801C132.151 48.1042 131.801 48.0528 131.474 47.9292C131.147 47.8057 130.85 47.613 130.604 47.3642C130.358 47.1155 130.169 46.8166 130.049 46.4879C129.929 46.1593 129.882 45.8087 129.91 45.4601C129.91 42.9801 132.33 41.8701 135.3 41.8901L135.32 40.8001ZM135.32 43.4301C133.41 43.3701 131.99 44.0201 131.99 45.2101C131.972 45.3711 131.991 45.5342 132.045 45.6869C132.099 45.8397 132.188 45.9781 132.303 46.0917C132.419 46.2054 132.559 46.2913 132.712 46.343C132.866 46.3947 133.029 46.4108 133.19 46.3901C133.598 46.3627 133.997 46.254 134.363 46.0702C134.729 45.8865 135.054 45.6314 135.32 45.3201V43.4301Z" fill="black"/>
<path d="M141.41 34.54V36.44H139.69V34.54H141.41ZM143.13 38.08V47.86H141V38.08H143.13ZM144.48 34.54V36.44H142.76V34.54H144.48Z" fill="black"/>
<path d="M148.31 38.08V39.2C148.63 38.7882 149.037 38.4527 149.502 38.2175C149.967 37.9823 150.479 37.8533 151 37.84C152.53 37.84 152.87 39.2 152.87 40.64L151 40.8C151 40.21 150.92 39.8 150.34 39.8C149.672 39.9338 149.067 40.2855 148.62 40.8V47.8H146.51V38.08H148.31Z" fill="black"/>
<path d="M161.057 48V39.2727H162.114V47.0625H166.17V48H161.057ZM169.597 48.1534C169.182 48.1534 168.805 48.0753 168.467 47.919C168.129 47.7599 167.861 47.5312 167.662 47.233C167.463 46.9318 167.364 46.5682 167.364 46.142C167.364 45.767 167.438 45.4631 167.585 45.2301C167.733 44.9943 167.93 44.8097 168.178 44.6761C168.425 44.5426 168.697 44.4432 168.996 44.3778C169.297 44.3097 169.599 44.2557 169.903 44.2159C170.301 44.1648 170.624 44.1264 170.871 44.1009C171.121 44.0724 171.303 44.0256 171.416 43.9602C171.533 43.8949 171.591 43.7812 171.591 43.6193V43.5852C171.591 43.1648 171.476 42.8381 171.246 42.6051C171.018 42.3722 170.673 42.2557 170.21 42.2557C169.73 42.2557 169.354 42.3608 169.081 42.571C168.808 42.7812 168.616 43.0057 168.506 43.2443L167.551 42.9034C167.722 42.5057 167.949 42.196 168.233 41.9744C168.52 41.75 168.832 41.5937 169.17 41.5057C169.511 41.4148 169.847 41.3693 170.176 41.3693C170.386 41.3693 170.628 41.3949 170.901 41.446C171.176 41.4943 171.442 41.5952 171.697 41.7486C171.956 41.902 172.17 42.1335 172.341 42.4432C172.511 42.7528 172.597 43.1676 172.597 43.6875V48H171.591V47.1136H171.54C171.472 47.2557 171.358 47.4077 171.199 47.5696C171.04 47.7315 170.828 47.8693 170.564 47.983C170.3 48.0966 169.977 48.1534 169.597 48.1534ZM169.75 47.25C170.148 47.25 170.483 47.1719 170.756 47.0156C171.031 46.8594 171.239 46.6577 171.378 46.4105C171.52 46.1634 171.591 45.9034 171.591 45.6307V44.7102C171.548 44.7614 171.455 44.8082 171.31 44.8509C171.168 44.8906 171.003 44.9261 170.815 44.9574C170.631 44.9858 170.45 45.0114 170.274 45.0341C170.101 45.054 169.96 45.071 169.852 45.0852C169.591 45.1193 169.347 45.1747 169.119 45.2514C168.895 45.3253 168.713 45.4375 168.574 45.5881C168.438 45.7358 168.369 45.9375 168.369 46.1932C168.369 46.5426 168.499 46.8068 168.757 46.9858C169.018 47.1619 169.349 47.25 169.75 47.25ZM177.944 48V39.2727H178.949V42.4943H179.034C179.108 42.3807 179.211 42.2358 179.341 42.0597C179.475 41.8807 179.665 41.7216 179.912 41.5824C180.162 41.4403 180.5 41.3693 180.926 41.3693C181.478 41.3693 181.963 41.5071 182.384 41.7827C182.804 42.0582 183.132 42.4489 183.368 42.9545C183.604 43.4602 183.722 44.0568 183.722 44.7443C183.722 45.4375 183.604 46.0384 183.368 46.5469C183.132 47.0526 182.806 47.4446 182.388 47.723C181.971 47.9986 181.489 48.1364 180.944 48.1364C180.523 48.1364 180.186 48.0668 179.934 47.9276C179.681 47.7855 179.486 47.625 179.35 47.446C179.213 47.2642 179.108 47.1136 179.034 46.9943H178.915V48H177.944ZM178.932 44.7273C178.932 45.2216 179.005 45.6577 179.15 46.0355C179.294 46.4105 179.506 46.7045 179.784 46.9176C180.063 47.1278 180.404 47.233 180.807 47.233C181.228 47.233 181.578 47.1222 181.86 46.9006C182.144 46.6761 182.357 46.375 182.499 45.9972C182.644 45.6165 182.716 45.1932 182.716 44.7273C182.716 44.267 182.645 43.8523 182.503 43.483C182.364 43.1108 182.152 42.8168 181.868 42.6009C181.587 42.3821 181.233 42.2727 180.807 42.2727C180.398 42.2727 180.054 42.3764 179.776 42.5838C179.498 42.7884 179.287 43.0753 179.145 43.4446C179.003 43.8111 178.932 44.2386 178.932 44.7273ZM187.186 48.1534C186.772 48.1534 186.395 48.0753 186.057 47.919C185.719 47.7599 185.451 47.5312 185.252 47.233C185.053 46.9318 184.953 46.5682 184.953 46.142C184.953 45.767 185.027 45.4631 185.175 45.2301C185.323 44.9943 185.52 44.8097 185.767 44.6761C186.015 44.5426 186.287 44.4432 186.586 44.3778C186.887 44.3097 187.189 44.2557 187.493 44.2159C187.891 44.1648 188.213 44.1264 188.461 44.1009C188.711 44.0724 188.892 44.0256 189.006 43.9602C189.123 43.8949 189.181 43.7812 189.181 43.6193V43.5852C189.181 43.1648 189.066 42.8381 188.836 42.6051C188.608 42.3722 188.263 42.2557 187.8 42.2557C187.32 42.2557 186.944 42.3608 186.671 42.571C186.398 42.7812 186.206 43.0057 186.096 43.2443L185.141 42.9034C185.311 42.5057 185.539 42.196 185.823 41.9744C186.11 41.75 186.422 41.5937 186.76 41.5057C187.101 41.4148 187.436 41.3693 187.766 41.3693C187.976 41.3693 188.218 41.3949 188.49 41.446C188.766 41.4943 189.032 41.5952 189.287 41.7486C189.546 41.902 189.76 42.1335 189.931 42.4432C190.101 42.7528 190.186 43.1676 190.186 43.6875V48H189.181V47.1136H189.13C189.061 47.2557 188.948 47.4077 188.789 47.5696C188.63 47.7315 188.418 47.8693 188.154 47.983C187.89 48.0966 187.567 48.1534 187.186 48.1534ZM187.34 47.25C187.738 47.25 188.073 47.1719 188.346 47.0156C188.621 46.8594 188.828 46.6577 188.968 46.4105C189.11 46.1634 189.181 45.9034 189.181 45.6307V44.7102C189.138 44.7614 189.044 44.8082 188.9 44.8509C188.757 44.8906 188.593 44.9261 188.405 44.9574C188.221 44.9858 188.04 45.0114 187.864 45.0341C187.691 45.054 187.55 45.071 187.442 45.0852C187.181 45.1193 186.936 45.1747 186.709 45.2514C186.485 45.3253 186.303 45.4375 186.164 45.5881C186.027 45.7358 185.959 45.9375 185.959 46.1932C185.959 46.5426 186.088 46.8068 186.347 46.9858C186.608 47.1619 186.939 47.25 187.34 47.25ZM193.028 44.0625V48H192.022V41.4545H192.994V42.4773H193.079C193.232 42.1449 193.465 41.8778 193.778 41.6761C194.09 41.4716 194.494 41.3693 194.988 41.3693C195.431 41.3693 195.819 41.4602 196.151 41.642C196.484 41.821 196.742 42.0938 196.927 42.4602C197.112 42.8239 197.204 43.2841 197.204 43.8409V48H196.198V43.9091C196.198 43.3949 196.065 42.9943 195.798 42.7074C195.531 42.4176 195.164 42.2727 194.698 42.2727C194.377 42.2727 194.09 42.3423 193.837 42.4815C193.587 42.6207 193.39 42.8239 193.245 43.0909C193.1 43.358 193.028 43.6818 193.028 44.0625ZM203.507 50.4545V46.9943H203.422C203.348 47.1136 203.243 47.2642 203.107 47.446C202.971 47.625 202.776 47.7855 202.523 47.9276C202.27 48.0668 201.934 48.1364 201.513 48.1364C200.968 48.1364 200.486 47.9986 200.069 47.723C199.651 47.4446 199.324 47.0526 199.088 46.5469C198.853 46.0384 198.735 45.4375 198.735 44.7443C198.735 44.0568 198.853 43.4602 199.088 42.9545C199.324 42.4489 199.652 42.0582 200.073 41.7827C200.493 41.5071 200.979 41.3693 201.53 41.3693C201.956 41.3693 202.293 41.4403 202.54 41.5824C202.79 41.7216 202.98 41.8807 203.111 42.0597C203.245 42.2358 203.348 42.3807 203.422 42.4943H203.542V41.4545H204.513V50.4545H203.507ZM201.65 47.233C202.053 47.233 202.394 47.1278 202.672 46.9176C202.951 46.7045 203.162 46.4105 203.307 46.0355C203.452 45.6577 203.525 45.2216 203.525 44.7273C203.525 44.2386 203.453 43.8111 203.311 43.4446C203.169 43.0753 202.959 42.7884 202.681 42.5838C202.402 42.3764 202.059 42.2727 201.65 42.2727C201.223 42.2727 200.868 42.3821 200.584 42.6009C200.303 42.8168 200.091 43.1108 199.949 43.483C199.81 43.8523 199.74 44.267 199.74 44.7273C199.74 45.1932 199.811 45.6165 199.953 45.9972C200.098 46.375 200.311 46.6761 200.593 46.9006C200.877 47.1222 201.229 47.233 201.65 47.233ZM210.479 45.3239V41.4545H211.485V48H210.479V46.892H210.411C210.257 47.2244 210.019 47.5071 209.695 47.7401C209.371 47.9702 208.962 48.0852 208.468 48.0852C208.059 48.0852 207.695 47.9957 207.377 47.8168C207.059 47.6349 206.809 47.3622 206.627 46.9986C206.445 46.6321 206.354 46.1705 206.354 45.6136V41.4545H207.36V45.5455C207.36 46.0227 207.493 46.4034 207.76 46.6875C208.03 46.9716 208.374 47.1136 208.792 47.1136C209.042 47.1136 209.296 47.0497 209.554 46.9219C209.816 46.794 210.034 46.598 210.211 46.3338C210.39 46.0696 210.479 45.733 210.479 45.3239ZM216.071 48.1364C215.44 48.1364 214.896 47.9972 214.439 47.7188C213.984 47.4375 213.634 47.0455 213.386 46.5426C213.142 46.0369 213.02 45.4489 213.02 44.7784C213.02 44.108 213.142 43.517 213.386 43.0057C213.634 42.4915 213.977 42.0909 214.418 41.804C214.861 41.5142 215.378 41.3693 215.969 41.3693C216.31 41.3693 216.646 41.4261 216.979 41.5398C217.311 41.6534 217.614 41.8381 217.886 42.0938C218.159 42.3466 218.376 42.6818 218.538 43.0994C218.7 43.517 218.781 44.0312 218.781 44.642V45.0682H213.736V44.1989H217.759C217.759 43.8295 217.685 43.5 217.537 43.2102C217.392 42.9205 217.185 42.6918 216.915 42.5241C216.648 42.3565 216.332 42.2727 215.969 42.2727C215.568 42.2727 215.222 42.3722 214.929 42.571C214.639 42.767 214.416 43.0227 214.26 43.3381C214.104 43.6534 214.026 43.9915 214.026 44.3523V44.9318C214.026 45.4261 214.111 45.8452 214.281 46.1889C214.455 46.5298 214.695 46.7898 215.001 46.9688C215.308 47.1449 215.665 47.233 216.071 47.233C216.335 47.233 216.574 47.196 216.787 47.1222C217.003 47.0455 217.189 46.9318 217.345 46.7812C217.501 46.6278 217.622 46.4375 217.707 46.2102L218.679 46.483C218.577 46.8125 218.405 47.1023 218.163 47.3523C217.922 47.5994 217.624 47.7926 217.268 47.9318C216.913 48.0682 216.514 48.1364 216.071 48.1364ZM226.158 48.1364C225.612 48.1364 225.131 47.9986 224.713 47.723C224.295 47.4446 223.969 47.0526 223.733 46.5469C223.497 46.0384 223.379 45.4375 223.379 44.7443C223.379 44.0568 223.497 43.4602 223.733 42.9545C223.969 42.4489 224.297 42.0582 224.717 41.7827C225.138 41.5071 225.624 41.3693 226.175 41.3693C226.601 41.3693 226.938 41.4403 227.185 41.5824C227.435 41.7216 227.625 41.8807 227.756 42.0597C227.889 42.2358 227.993 42.3807 228.067 42.4943H228.152V39.2727H229.158V48H228.186V46.9943H228.067C227.993 47.1136 227.888 47.2642 227.751 47.446C227.615 47.625 227.42 47.7855 227.168 47.9276C226.915 48.0668 226.578 48.1364 226.158 48.1364ZM226.294 47.233C226.697 47.233 227.038 47.1278 227.317 46.9176C227.595 46.7045 227.807 46.4105 227.952 46.0355C228.097 45.6577 228.169 45.2216 228.169 44.7273C228.169 44.2386 228.098 43.8111 227.956 43.4446C227.814 43.0753 227.604 42.7884 227.325 42.5838C227.047 42.3764 226.703 42.2727 226.294 42.2727C225.868 42.2727 225.513 42.3821 225.229 42.6009C224.947 42.8168 224.736 43.1108 224.594 43.483C224.455 43.8523 224.385 44.267 224.385 44.7273C224.385 45.1932 224.456 45.6165 224.598 45.9972C224.743 46.375 224.956 46.6761 225.237 46.9006C225.521 47.1222 225.874 47.233 226.294 47.233ZM232.009 39.2727V42.2727H231.071V39.2727H232.009ZM237.924 45.3239V41.4545H238.93V48H237.924V46.892H237.856C237.703 47.2244 237.464 47.5071 237.14 47.7401C236.816 47.9702 236.407 48.0852 235.913 48.0852C235.504 48.0852 235.14 47.9957 234.822 47.8168C234.504 47.6349 234.254 47.3622 234.072 46.9986C233.89 46.6321 233.799 46.1705 233.799 45.6136V41.4545H234.805V45.5455C234.805 46.0227 234.939 46.4034 235.206 46.6875C235.475 46.9716 235.819 47.1136 236.237 47.1136C236.487 47.1136 236.741 47.0497 237 46.9219C237.261 46.794 237.48 46.598 237.656 46.3338C237.835 46.0696 237.924 45.733 237.924 45.3239ZM241.778 44.0625V48H240.772V41.4545H241.744V42.4773H241.829C241.982 42.1449 242.215 41.8778 242.528 41.6761C242.84 41.4716 243.244 41.3693 243.738 41.3693C244.181 41.3693 244.569 41.4602 244.901 41.642C245.234 41.821 245.492 42.0938 245.677 42.4602C245.862 42.8239 245.954 43.2841 245.954 43.8409V48H244.948V43.9091C244.948 43.3949 244.815 42.9943 244.548 42.7074C244.281 42.4176 243.914 42.2727 243.448 42.2727C243.127 42.2727 242.84 42.3423 242.587 42.4815C242.337 42.6207 242.14 42.8239 241.995 43.0909C241.85 43.358 241.778 43.6818 241.778 44.0625ZM251.167 48V41.4545H252.138V42.4773H252.223C252.36 42.1278 252.58 41.8565 252.884 41.6634C253.188 41.4673 253.553 41.3693 253.979 41.3693C254.411 41.3693 254.77 41.4673 255.057 41.6634C255.347 41.8565 255.573 42.1278 255.735 42.4773H255.803C255.971 42.1392 256.222 41.8707 256.557 41.6719C256.892 41.4702 257.294 41.3693 257.763 41.3693C258.348 41.3693 258.827 41.5526 259.199 41.919C259.571 42.2827 259.757 42.8494 259.757 43.6193V48H258.752V43.6193C258.752 43.1364 258.62 42.7912 258.355 42.5838C258.091 42.3764 257.78 42.2727 257.422 42.2727C256.962 42.2727 256.605 42.4119 256.353 42.6903C256.1 42.9659 255.973 43.3153 255.973 43.7386V48H254.951V43.517C254.951 43.1449 254.83 42.8452 254.588 42.6179C254.347 42.3878 254.036 42.2727 253.655 42.2727C253.394 42.2727 253.15 42.3423 252.922 42.4815C252.698 42.6207 252.516 42.8139 252.377 43.0611C252.24 43.3054 252.172 43.5881 252.172 43.9091V48H251.167ZM264.255 48.1364C263.664 48.1364 263.146 47.9957 262.7 47.7145C262.257 47.4332 261.91 47.0398 261.66 46.5341C261.413 46.0284 261.289 45.4375 261.289 44.7614C261.289 44.0795 261.413 43.4844 261.66 42.9759C261.91 42.4673 262.257 42.0724 262.7 41.7912C263.146 41.5099 263.664 41.3693 264.255 41.3693C264.846 41.3693 265.363 41.5099 265.806 41.7912C266.252 42.0724 266.599 42.4673 266.846 42.9759C267.096 43.4844 267.221 44.0795 267.221 44.7614C267.221 45.4375 267.096 46.0284 266.846 46.5341C266.599 47.0398 266.252 47.4332 265.806 47.7145C265.363 47.9957 264.846 48.1364 264.255 48.1364ZM264.255 47.233C264.704 47.233 265.074 47.1179 265.363 46.8878C265.653 46.6577 265.868 46.3551 266.007 45.9801C266.146 45.6051 266.216 45.1989 266.216 44.7614C266.216 44.3239 266.146 43.9162 266.007 43.5384C265.868 43.1605 265.653 42.8551 265.363 42.6222C265.074 42.3892 264.704 42.2727 264.255 42.2727C263.806 42.2727 263.437 42.3892 263.147 42.6222C262.858 42.8551 262.643 43.1605 262.504 43.5384C262.365 43.9162 262.295 44.3239 262.295 44.7614C262.295 45.1989 262.365 45.6051 262.504 45.9801C262.643 46.3551 262.858 46.6577 263.147 46.8878C263.437 47.1179 263.806 47.233 264.255 47.233ZM269.762 44.0625V48H268.756V41.4545H269.728V42.4773H269.813C269.967 42.1449 270.2 41.8778 270.512 41.6761C270.825 41.4716 271.228 41.3693 271.722 41.3693C272.165 41.3693 272.553 41.4602 272.886 41.642C273.218 41.821 273.477 42.0938 273.661 42.4602C273.846 42.8239 273.938 43.2841 273.938 43.8409V48H272.933V43.9091C272.933 43.3949 272.799 42.9943 272.532 42.7074C272.265 42.4176 271.898 42.2727 271.433 42.2727C271.112 42.2727 270.825 42.3423 270.572 42.4815C270.322 42.6207 270.124 42.8239 269.979 43.0909C269.835 43.358 269.762 43.6818 269.762 44.0625ZM278.248 48.1364C277.702 48.1364 277.221 47.9986 276.803 47.723C276.385 47.4446 276.059 47.0526 275.823 46.5469C275.587 46.0384 275.469 45.4375 275.469 44.7443C275.469 44.0568 275.587 43.4602 275.823 42.9545C276.059 42.4489 276.387 42.0582 276.807 41.7827C277.228 41.5071 277.713 41.3693 278.265 41.3693C278.691 41.3693 279.027 41.4403 279.275 41.5824C279.525 41.7216 279.715 41.8807 279.846 42.0597C279.979 42.2358 280.083 42.3807 280.157 42.4943H280.242V39.2727H281.248V48H280.276V46.9943H280.157C280.083 47.1136 279.978 47.2642 279.841 47.446C279.705 47.625 279.51 47.7855 279.257 47.9276C279.005 48.0668 278.668 48.1364 278.248 48.1364ZM278.384 47.233C278.787 47.233 279.128 47.1278 279.407 46.9176C279.685 46.7045 279.897 46.4105 280.042 46.0355C280.186 45.6577 280.259 45.2216 280.259 44.7273C280.259 44.2386 280.188 43.8111 280.046 43.4446C279.904 43.0753 279.694 42.7884 279.415 42.5838C279.137 42.3764 278.793 42.2727 278.384 42.2727C277.958 42.2727 277.603 42.3821 277.319 42.6009C277.037 42.8168 276.826 43.1108 276.684 43.483C276.544 43.8523 276.475 44.267 276.475 44.7273C276.475 45.1932 276.546 45.6165 276.688 45.9972C276.833 46.375 277.046 46.6761 277.327 46.9006C277.611 47.1222 277.963 47.233 278.384 47.233ZM285.973 48.1364C285.343 48.1364 284.799 47.9972 284.341 47.7188C283.887 47.4375 283.536 47.0455 283.289 46.5426C283.044 46.0369 282.922 45.4489 282.922 44.7784C282.922 44.108 283.044 43.517 283.289 43.0057C283.536 42.4915 283.88 42.0909 284.32 41.804C284.763 41.5142 285.28 41.3693 285.871 41.3693C286.212 41.3693 286.549 41.4261 286.881 41.5398C287.213 41.6534 287.516 41.8381 287.789 42.0938C288.061 42.3466 288.279 42.6818 288.441 43.0994C288.603 43.517 288.684 44.0312 288.684 44.642V45.0682H283.638V44.1989H287.661C287.661 43.8295 287.587 43.5 287.439 43.2102C287.294 42.9205 287.087 42.6918 286.817 42.5241C286.55 42.3565 286.235 42.2727 285.871 42.2727C285.471 42.2727 285.124 42.3722 284.831 42.571C284.542 42.767 284.319 43.0227 284.162 43.3381C284.006 43.6534 283.928 43.9915 283.928 44.3523V44.9318C283.928 45.4261 284.013 45.8452 284.184 46.1889C284.357 46.5298 284.597 46.7898 284.904 46.9688C285.211 47.1449 285.567 47.233 285.973 47.233C286.238 47.233 286.476 47.196 286.689 47.1222C286.905 47.0455 287.091 46.9318 287.248 46.7812C287.404 46.6278 287.525 46.4375 287.61 46.2102L288.581 46.483C288.479 46.8125 288.307 47.1023 288.066 47.3523C287.824 47.5994 287.526 47.7926 287.171 47.9318C286.816 48.0682 286.417 48.1364 285.973 48.1364ZM298.054 50.4545V46.9943H297.969C297.895 47.1136 297.79 47.2642 297.654 47.446C297.517 47.625 297.323 47.7855 297.07 47.9276C296.817 48.0668 296.48 48.1364 296.06 48.1364C295.515 48.1364 295.033 47.9986 294.615 47.723C294.198 47.4446 293.871 47.0526 293.635 46.5469C293.4 46.0384 293.282 45.4375 293.282 44.7443C293.282 44.0568 293.4 43.4602 293.635 42.9545C293.871 42.4489 294.199 42.0582 294.62 41.7827C295.04 41.5071 295.526 41.3693 296.077 41.3693C296.503 41.3693 296.84 41.4403 297.087 41.5824C297.337 41.7216 297.527 41.8807 297.658 42.0597C297.792 42.2358 297.895 42.3807 297.969 42.4943H298.088V41.4545H299.06V50.4545H298.054ZM296.196 47.233C296.6 47.233 296.941 47.1278 297.219 46.9176C297.498 46.7045 297.709 46.4105 297.854 46.0355C297.999 45.6577 298.071 45.2216 298.071 44.7273C298.071 44.2386 298 43.8111 297.858 43.4446C297.716 43.0753 297.506 42.7884 297.228 42.5838C296.949 42.3764 296.605 42.2727 296.196 42.2727C295.77 42.2727 295.415 42.3821 295.131 42.6009C294.85 42.8168 294.638 43.1108 294.496 43.483C294.357 43.8523 294.287 44.267 294.287 44.7273C294.287 45.1932 294.358 45.6165 294.5 45.9972C294.645 46.375 294.858 46.6761 295.14 46.9006C295.424 47.1222 295.776 47.233 296.196 47.233ZM305.026 45.3239V41.4545H306.032V48H305.026V46.892H304.958C304.804 47.2244 304.566 47.5071 304.242 47.7401C303.918 47.9702 303.509 48.0852 303.015 48.0852C302.605 48.0852 302.242 47.9957 301.924 47.8168C301.605 47.6349 301.355 47.3622 301.174 46.9986C300.992 46.6321 300.901 46.1705 300.901 45.6136V41.4545H301.907V45.5455C301.907 46.0227 302.04 46.4034 302.307 46.6875C302.577 46.9716 302.921 47.1136 303.338 47.1136C303.588 47.1136 303.843 47.0497 304.101 46.9219C304.363 46.794 304.581 46.598 304.757 46.3338C304.936 46.0696 305.026 45.733 305.026 45.3239ZM307.874 48V41.4545H308.879V48H307.874ZM308.385 40.3636C308.189 40.3636 308.02 40.2969 307.878 40.1634C307.739 40.0298 307.669 39.8693 307.669 39.6818C307.669 39.4943 307.739 39.3338 307.878 39.2003C308.02 39.0668 308.189 39 308.385 39C308.581 39 308.749 39.0668 308.888 39.2003C309.03 39.3338 309.101 39.4943 309.101 39.6818C309.101 39.8693 309.03 40.0298 308.888 40.1634C308.749 40.2969 308.581 40.3636 308.385 40.3636ZM316.755 48.1364C316.142 48.1364 315.613 47.9915 315.17 47.7017C314.727 47.4119 314.386 47.0128 314.147 46.5043C313.909 45.9957 313.789 45.4148 313.789 44.7614C313.789 44.0966 313.912 43.5099 314.156 43.0014C314.403 42.4901 314.747 42.0909 315.187 41.804C315.63 41.5142 316.147 41.3693 316.738 41.3693C317.199 41.3693 317.613 41.4545 317.983 41.625C318.352 41.7955 318.654 42.0341 318.89 42.3409C319.126 42.6477 319.272 43.0057 319.329 43.4148H318.324C318.247 43.1165 318.076 42.8523 317.812 42.6222C317.551 42.3892 317.199 42.2727 316.755 42.2727C316.363 42.2727 316.02 42.375 315.724 42.5795C315.431 42.7812 315.203 43.0668 315.038 43.4361C314.876 43.8026 314.795 44.233 314.795 44.7273C314.795 45.233 314.875 45.6733 315.034 46.0483C315.196 46.4233 315.423 46.7145 315.716 46.9219C316.011 47.1293 316.358 47.233 316.755 47.233C317.017 47.233 317.254 47.1875 317.467 47.0966C317.68 47.0057 317.86 46.875 318.008 46.7045C318.156 46.5341 318.261 46.3295 318.324 46.0909H319.329C319.272 46.4773 319.132 46.8253 318.907 47.1349C318.686 47.4418 318.392 47.6861 318.025 47.8679C317.662 48.0469 317.238 48.1364 316.755 48.1364ZM321.805 44.0625V48H320.799V39.2727H321.805V42.4773H321.89C322.044 42.1392 322.274 41.8707 322.581 41.6719C322.89 41.4702 323.302 41.3693 323.816 41.3693C324.262 41.3693 324.653 41.4588 324.988 41.6378C325.324 41.8139 325.583 42.0852 325.768 42.4517C325.956 42.8153 326.049 43.2784 326.049 43.8409V48H325.044V43.9091C325.044 43.3892 324.909 42.9872 324.639 42.7031C324.372 42.4162 324.001 42.2727 323.527 42.2727C323.197 42.2727 322.902 42.3423 322.64 42.4815C322.382 42.6207 322.177 42.8239 322.027 43.0909C321.879 43.358 321.805 43.6818 321.805 44.0625ZM329.815 48.1534C329.401 48.1534 329.024 48.0753 328.686 47.919C328.348 47.7599 328.08 47.5312 327.881 47.233C327.682 46.9318 327.582 46.5682 327.582 46.142C327.582 45.767 327.656 45.4631 327.804 45.2301C327.952 44.9943 328.149 44.8097 328.396 44.6761C328.643 44.5426 328.916 44.4432 329.214 44.3778C329.516 44.3097 329.818 44.2557 330.122 44.2159C330.52 44.1648 330.842 44.1264 331.089 44.1009C331.339 44.0724 331.521 44.0256 331.635 43.9602C331.751 43.8949 331.81 43.7812 331.81 43.6193V43.5852C331.81 43.1648 331.695 42.8381 331.464 42.6051C331.237 42.3722 330.892 42.2557 330.429 42.2557C329.949 42.2557 329.572 42.3608 329.3 42.571C329.027 42.7812 328.835 43.0057 328.724 43.2443L327.77 42.9034C327.94 42.5057 328.168 42.196 328.452 41.9744C328.739 41.75 329.051 41.5937 329.389 41.5057C329.73 41.4148 330.065 41.3693 330.395 41.3693C330.605 41.3693 330.847 41.3949 331.119 41.446C331.395 41.4943 331.661 41.5952 331.916 41.7486C332.175 41.902 332.389 42.1335 332.56 42.4432C332.73 42.7528 332.815 43.1676 332.815 43.6875V48H331.81V47.1136H331.759C331.69 47.2557 331.577 47.4077 331.418 47.5696C331.259 47.7315 331.047 47.8693 330.783 47.983C330.518 48.0966 330.196 48.1534 329.815 48.1534ZM329.969 47.25C330.366 47.25 330.702 47.1719 330.974 47.0156C331.25 46.8594 331.457 46.6577 331.597 46.4105C331.739 46.1634 331.81 45.9034 331.81 45.6307V44.7102C331.767 44.7614 331.673 44.8082 331.528 44.8509C331.386 44.8906 331.222 44.9261 331.034 44.9574C330.849 44.9858 330.669 45.0114 330.493 45.0341C330.32 45.054 330.179 45.071 330.071 45.0852C329.81 45.1193 329.565 45.1747 329.338 45.2514C329.114 45.3253 328.932 45.4375 328.793 45.5881C328.656 45.7358 328.588 45.9375 328.588 46.1932C328.588 46.5426 328.717 46.8068 328.976 46.9858C329.237 47.1619 329.568 47.25 329.969 47.25ZM335.657 44.0625V48H334.651V41.4545H335.623V42.4773H335.708C335.861 42.1449 336.094 41.8778 336.407 41.6761C336.719 41.4716 337.123 41.3693 337.617 41.3693C338.06 41.3693 338.448 41.4602 338.78 41.642C339.113 41.821 339.371 42.0938 339.556 42.4602C339.74 42.8239 339.833 43.2841 339.833 43.8409V48H338.827V43.9091C338.827 43.3949 338.694 42.9943 338.426 42.7074C338.159 42.4176 337.793 42.2727 337.327 42.2727C337.006 42.2727 336.719 42.3423 336.466 42.4815C336.216 42.6207 336.019 42.8239 335.874 43.0909C335.729 43.358 335.657 43.6818 335.657 44.0625ZM344.312 50.5909C343.827 50.5909 343.409 50.5284 343.06 50.4034C342.71 50.2812 342.419 50.1193 342.186 49.9176C341.956 49.7188 341.773 49.5057 341.636 49.2784L342.438 48.7159C342.528 48.8352 342.643 48.9716 342.783 49.125C342.922 49.2812 343.112 49.4162 343.354 49.5298C343.598 49.6463 343.918 49.7045 344.312 49.7045C344.841 49.7045 345.277 49.5767 345.621 49.321C345.964 49.0653 346.136 48.6648 346.136 48.1193V46.7898H346.051C345.977 46.9091 345.872 47.0568 345.736 47.233C345.602 47.4062 345.409 47.5611 345.156 47.6974C344.906 47.831 344.568 47.8977 344.142 47.8977C343.614 47.8977 343.139 47.7727 342.719 47.5227C342.301 47.2727 341.97 46.9091 341.726 46.4318C341.484 45.9545 341.364 45.375 341.364 44.6932C341.364 44.0227 341.482 43.4389 341.717 42.9418C341.953 42.4418 342.281 42.0554 342.702 41.7827C343.122 41.5071 343.608 41.3693 344.159 41.3693C344.585 41.3693 344.923 41.4403 345.173 41.5824C345.426 41.7216 345.619 41.8807 345.753 42.0597C345.889 42.2358 345.994 42.3807 346.068 42.4943H346.17V41.4545H347.142V48.1875C347.142 48.75 347.014 49.2074 346.759 49.5597C346.506 49.9148 346.165 50.1747 345.736 50.3395C345.31 50.5071 344.835 50.5909 344.312 50.5909ZM344.278 46.9943C344.682 46.9943 345.023 46.902 345.301 46.7173C345.58 46.5327 345.791 46.267 345.936 45.9205C346.081 45.5739 346.153 45.1591 346.153 44.6761C346.153 44.2045 346.082 43.7884 345.94 43.4276C345.798 43.0668 345.588 42.7841 345.31 42.5795C345.031 42.375 344.688 42.2727 344.278 42.2727C343.852 42.2727 343.497 42.3807 343.213 42.5966C342.932 42.8125 342.72 43.1023 342.578 43.4659C342.439 43.8295 342.369 44.233 342.369 44.6761C342.369 45.1307 342.44 45.5327 342.582 45.8821C342.727 46.2287 342.94 46.5014 343.222 46.7003C343.506 46.8963 343.858 46.9943 344.278 46.9943ZM351.727 48.1364C351.097 48.1364 350.553 47.9972 350.095 47.7188C349.641 47.4375 349.29 47.0455 349.043 46.5426C348.798 46.0369 348.676 45.4489 348.676 44.7784C348.676 44.108 348.798 43.517 349.043 43.0057C349.29 42.4915 349.634 42.0909 350.074 41.804C350.517 41.5142 351.034 41.3693 351.625 41.3693C351.966 41.3693 352.303 41.4261 352.635 41.5398C352.967 41.6534 353.27 41.8381 353.543 42.0938C353.815 42.3466 354.033 42.6818 354.195 43.0994C354.357 43.517 354.438 44.0312 354.438 44.642V45.0682H349.392V44.1989H353.415C353.415 43.8295 353.341 43.5 353.193 43.2102C353.048 42.9205 352.841 42.6918 352.571 42.5241C352.304 42.3565 351.989 42.2727 351.625 42.2727C351.224 42.2727 350.878 42.3722 350.585 42.571C350.295 42.767 350.072 43.0227 349.916 43.3381C349.76 43.6534 349.682 43.9915 349.682 44.3523V44.9318C349.682 45.4261 349.767 45.8452 349.938 46.1889C350.111 46.5298 350.351 46.7898 350.658 46.9688C350.964 47.1449 351.321 47.233 351.727 47.233C351.991 47.233 352.23 47.196 352.443 47.1222C352.659 47.0455 352.845 46.9318 353.001 46.7812C353.158 46.6278 353.278 46.4375 353.364 46.2102L354.335 46.483C354.233 46.8125 354.061 47.1023 353.82 47.3523C353.578 47.5994 353.28 47.7926 352.925 47.9318C352.57 48.0682 352.17 48.1364 351.727 48.1364Z" fill="black"/>
</g>
<defs>
<linearGradient id="paint0_linear_39_105" x1="28.06" y1="-1.38" x2="28.06" y2="57.87" gradientUnits="userSpaceOnUse">
<stop stop-color="#00774A"/>
<stop offset="0.6" stop-color="#8AC9AD"/>
<stop offset="1" stop-color="#00965F"/>
</linearGradient>
<linearGradient id="paint1_linear_39_105" x1="27.9701" y1="-13.94" x2="27.9701" y2="52.64" gradientUnits="userSpaceOnUse">
<stop stop-color="#00965F"/>
<stop offset="0.3" stop-color="#8AC9AD"/>
<stop offset="0.55" stop-color="#00965F"/>
<stop offset="0.84" stop-color="#00774A"/>
<stop offset="0.89" stop-color="#008053"/>
<stop offset="0.98" stop-color="#00986A"/>
<stop offset="1" stop-color="#009E70"/>
</linearGradient>
<linearGradient id="paint2_linear_39_105" x1="38.64" y1="48.96" x2="38.64" y2="5.87999" gradientUnits="userSpaceOnUse">
<stop stop-color="#00A87C"/>
<stop offset="1" stop-color="#00965F"/>
</linearGradient>
<linearGradient id="paint3_linear_39_105" x1="11.91" y1="48.96" x2="11.91" y2="5.85999" gradientUnits="userSpaceOnUse">
<stop stop-color="#00A87C"/>
<stop offset="1" stop-color="#00965F"/>
</linearGradient>
<linearGradient id="paint4_linear_39_105" x1="20.2299" y1="48.9501" x2="20.2299" y2="5.88006" gradientUnits="userSpaceOnUse">
<stop stop-color="#00A87C"/>
<stop offset="1" stop-color="#00965F"/>
</linearGradient>
<linearGradient id="paint5_linear_39_105" x1="27.4301" y1="48.96" x2="27.4301" y2="5.87002" gradientUnits="userSpaceOnUse">
<stop stop-color="#00A87C"/>
<stop offset="1" stop-color="#00965F"/>
</linearGradient>
<clipPath id="clip0_39_105">
<rect width="376" height="56" fill="white"/>
</clipPath>
</defs>
</svg>
