<svg width="272" height="68" viewBox="0 0 272 68" fill="none" xmlns="http://www.w3.org/2000/svg">
<g clip-path="url(#clip0_39_138)">
<path d="M56.13 0H0V56.13H56.13V0Z" fill="url(#paint0_linear_39_138)"/>
<path d="M54.3901 28.39C54.3901 40.11 54.9301 52.1 54.9301 52.1C54.9596 52.3797 54.9298 52.6626 54.8426 52.93C54.7554 53.1974 54.6128 53.4435 54.424 53.652C54.2353 53.8606 54.0047 54.027 53.7472 54.1404C53.4898 54.2538 53.2113 54.3116 52.9301 54.31H4.38006C3.29006 54.31 2.54006 53.31 2.38006 52.1C1.38978 43.5064 0.928912 34.8601 1.00006 26.21C1.00006 10.56 2.40006 3.21 2.40006 3.21C2.58006 1.91 3.30006 1 4.38006 1H53.0001C53.2773 1.01148 53.5494 1.07803 53.8006 1.19578C54.0518 1.31352 54.2771 1.48011 54.4633 1.68582C54.6494 1.89153 54.7928 2.13225 54.8849 2.39393C54.9771 2.65562 55.0162 2.93303 55.0001 3.21C55.0001 3.21 54.3901 16.67 54.3901 28.39Z" fill="url(#paint1_linear_39_138)"/>
<path d="M43.58 15.16C40.11 17.16 39.05 17.36 35.28 19.62L35.46 19.2C36.9778 17.6524 38.3627 15.9798 39.6 14.2C35.5282 14.3743 31.4744 14.8421 27.47 15.6V15.6L27.66 15.21C31.643 13.4981 35.826 12.2953 40.11 11.63C39.35 10.57 33.2 7.23999 31.66 6.62999L31.84 6.23999C36.5794 6.87846 41.1675 8.35479 45.39 10.6C46.8386 10.2475 48.3198 10.0464 49.81 9.99999C49.81 9.99999 49.5 11.27 47.2 12.85C47.77 14.38 46.4 22.85 45.27 25.09C45.21 21.56 44.9 17.1 43.58 15.16Z" fill="url(#paint2_linear_39_138)"/>
<path d="M18.22 45.5L18.4 45.11C16.56 44.39 14.71 43.83 13.22 42.42C13.6815 41.1345 14.3138 39.9169 15.1 38.8V38.8L15.28 38.4C13.7 38.64 12.28 39.22 10.89 39.49C9.80997 37.59 9.38997 34.99 8.88997 32.49L8.70997 32.88C8.35523 35.23 8.35523 37.62 8.70997 39.97V39.97C7.67592 40.1587 6.6541 40.4092 5.64997 40.72L5.46997 41.11C6.8556 41.9895 8.2951 42.781 9.77997 43.48V43.48C10.539 45.2344 11.6327 46.824 13 48.16L13.18 47.77C12.8192 46.7571 12.6562 45.6843 12.7 44.61V44.61C14.4909 45.1563 16.3481 45.4557 18.22 45.5V45.5Z" fill="url(#paint3_linear_39_138)"/>
<path d="M23.3399 17.3101C22.8092 18.2911 22.361 19.3147 21.9999 20.3701H21.8599C25.1409 20.8369 28.3251 21.8296 31.2899 23.3101L31.1099 23.7001C28.3101 23.1157 25.4417 22.9305 22.5899 23.1501V23.1501C21.9073 23.1612 21.2314 23.2862 20.5899 23.5201C19.7624 25.7202 19.1757 28.0035 18.8399 30.3301L18.6599 30.7201C17.8399 28.7201 16.6599 24.8101 16.6599 24.8101C14.3999 26.0201 9.18994 30.9101 9.18994 30.9101C10.6394 27.8176 12.604 24.994 14.9999 22.5601V22.5601C13.9999 21.5601 11.3799 21.0401 9.46994 20.9601L9.64994 20.5701C11.3892 20.2219 13.1564 20.0311 14.9299 20.0001V20.0001C15.98 19.9576 17.0317 19.9743 18.0799 20.0501V20.0501C19.6427 18.81 21.4281 17.88 23.3399 17.3101V17.3101Z" fill="url(#paint4_linear_39_138)"/>
<path d="M28.8401 41.94C27.9301 43.17 27.1601 44.14 26.1601 45.26C24.6388 45.5258 23.0921 45.6164 21.5501 45.53L21.3701 45.92C22.3514 46.4232 23.3982 46.7867 24.4801 47V47C23.5788 47.7185 22.6263 48.3702 21.6301 48.95L21.4501 49.34C23.4682 48.8887 25.4136 48.1583 27.2301 47.17V47.17C28.0141 47.203 28.7992 47.146 29.5701 47V47L29.7501 46.61C29.6401 46.21 29.2901 45.97 29.1801 45.42C30.6409 44.266 32.0209 43.013 33.3101 41.67V41.67L33.5001 41.28C32.0774 42.3736 30.573 43.3565 29.0001 44.22V44.22C28.9301 43.45 28.8801 42.8 28.8401 41.94Z" fill="url(#paint5_linear_39_138)"/>
<path d="M43.7599 14.76C40.2999 16.76 39.2399 16.97 35.4699 19.22C37.0648 17.5593 38.5072 15.7588 39.7799 13.84C35.7112 14.0107 31.6604 14.4786 27.6599 15.24V15.24C31.6691 13.3313 35.9226 11.9852 40.2999 11.24C39.5399 10.19 33.3799 6.84999 31.8499 6.23999C36.7299 6.61999 42.6899 8.43999 45.5799 10.24C47.0298 9.89466 48.5104 9.69369 49.9999 9.63999V9.63999C49.4684 10.8593 48.5372 11.861 47.3599 12.48V12.48C47.9399 14.02 46.5599 22.48 45.4299 24.72C45.3999 21.17 45.0899 16.7 43.7599 14.76Z" fill="white"/>
<path d="M18.4001 45.11C16.5322 44.4578 14.8269 43.4107 13.4001 42.04C13.8675 40.7521 14.503 39.5315 15.2901 38.41V38.41C13.6701 38.65 12.4801 38.83 11.0801 39.1C9.98728 37.0446 9.23422 34.826 8.85011 32.53V32.53C8.49556 34.8834 8.49556 37.2766 8.85011 39.63V39.63C7.74063 39.9204 6.65697 40.3017 5.61011 40.77V40.77C6.99103 41.6428 8.42366 42.4309 9.90011 43.13V43.13C10.6833 44.8796 11.8009 46.4592 13.1901 47.78V47.78C12.8446 46.6304 12.7424 45.4214 12.8901 44.23V44.23C14.6783 44.7723 16.532 45.0683 18.4001 45.11V45.11Z" fill="white"/>
<path d="M23.5801 17C22.9081 17.9164 22.3756 18.9274 22.0001 20V20C25.27 20.5002 28.4116 21.6312 31.2501 23.33V23.33C28.4508 22.7414 25.5818 22.5562 22.7301 22.78V22.78C22.0492 22.7913 21.3743 22.9094 20.7301 23.13V23.13C19.8326 25.4553 19.1823 27.8686 18.7901 30.33V30.33C17.9701 28.33 16.7901 24.42 16.7901 24.42C14.5301 25.63 9.32007 30.53 9.32007 30.53C10.7519 27.4403 12.7036 24.6193 15.0901 22.19V22.19C14.0901 21.19 11.4701 20.67 9.55007 20.59C11.3355 20.0188 13.1878 19.6826 15.0601 19.59V19.59C16.1104 19.5524 17.162 19.5724 18.2101 19.65V19.65C19.8144 18.4318 21.6372 17.5323 23.5801 17V17Z" fill="white"/>
<path d="M29 41.55C28.16 42.7015 27.2622 43.8096 26.31 44.87V44.87C24.7544 45.3241 23.1404 45.5465 21.52 45.53V45.53C22.5017 46.0322 23.5484 46.3956 24.63 46.6101V46.6101C23.7006 47.4766 22.6968 48.2596 21.63 48.9501V48.9501C23.6488 48.4961 25.5943 47.7623 27.41 46.7701V46.7701C28.1961 46.811 28.9843 46.7641 29.76 46.6301C29.5924 46.0957 29.4588 45.5513 29.36 45V45C30.8254 43.8657 32.2088 42.6293 33.5 41.3V41.3C32.1387 42.2711 30.6929 43.1178 29.18 43.8301V43.8301C29.1 43.0601 29.06 42.41 29 41.55Z" fill="white"/>
<path d="M70.2399 8.53996C70.3599 10.54 70.4799 15.74 70.4799 17.63C70.4799 19.52 70.4799 25.17 70.1699 27.63V27.83H79.2399C83.6999 27.83 88.4099 26.44 88.4099 22.48C88.4099 20 86.6199 18.17 83.2599 17.17C85.7499 16.5 87.4099 14.8 87.4099 12.86C87.4099 9.62996 83.6999 8.40996 80.2099 8.32996H70.2099L70.2399 8.53996ZM77.2399 10.54C81.0199 10.54 82.4099 11.34 82.4099 13.4C82.4231 13.9324 82.2418 14.4515 81.8999 14.86C81.3781 15.3321 80.7562 15.68 80.0807 15.8774C79.4053 16.0748 78.6939 16.1167 77.9999 16H77.9099L76.8199 18.8H77.8799C78.7636 18.7146 79.6552 18.8264 80.4904 19.1273C81.3257 19.4282 82.0837 19.9107 82.7099 20.54C83.1284 21.0389 83.3584 21.6688 83.3599 22.32C83.3599 24.47 81.4699 25.58 77.7199 25.58C77.0899 25.58 76.0699 25.58 75.4299 25.58C75.3199 22.71 75.2699 18.82 75.2699 17.65C75.2699 16.29 75.3599 13.27 75.4299 10.65C76.0315 10.5526 76.6406 10.5091 77.2499 10.52L77.2399 10.54Z" fill="black"/>
<path d="M109.33 8.35999H104.92L105.1 13.28C105.18 15.71 105.27 18.21 105.44 20.64C104.946 19.5298 104.31 18.4879 103.55 17.54C103.55 17.47 98.9599 10.42 97.3699 8.40999H92.1899V8.58999C92.3499 10.59 92.4199 15.79 92.4199 17.68C92.4199 19.57 92.4199 25.22 92.1799 27.68V27.88H96.7399V27.68C96.4799 22.92 96.4799 18.12 96.4799 13.46C96.71 14.2257 97.0758 14.9438 97.5599 15.58C97.6199 15.71 105.48 27.15 105.86 27.8V27.88H109.51V27.68C109.23 25.18 109.21 19.37 109.21 17.68C109.21 15.99 109.33 10.68 109.45 8.58999L109.51 8.40999L109.33 8.35999Z" fill="black"/>
<path d="M114.6 8.54005C114.78 10.54 114.85 15.74 114.85 17.63C114.85 19.52 114.85 25.17 114.58 27.63V27.83H120V27.63C119.82 25.83 119.72 22.39 119.7 19.77L120.7 19.82H121.47C128.61 19.82 132.08 17.93 132.08 13.95C132.08 9.43005 127.21 8.39005 123.14 8.30005H114.6V8.54005ZM121.29 10.71C123.84 10.71 125.61 11.18 126.45 12.25C126.854 12.7463 127.067 13.3706 127.05 14.01C127.05 16.83 123.87 17.44 121.22 17.44L120.14 17.38H119.7C119.7 16.73 119.7 15.87 119.7 14.91C119.7 13.68 119.7 12.23 119.76 10.91C120.268 10.8087 120.783 10.7419 121.3 10.71H121.29Z" fill="black"/>
<path d="M142.46 8.53998C142.63 10.54 142.73 15.74 142.73 17.63C142.73 19.52 142.73 25.17 142.43 27.63V27.83H147.86V27.63C147.69 25.83 147.59 22.39 147.59 19.77L148.59 19.82H149.38C156.46 19.87 160 18 160 14C160 9.47998 155.1 8.43998 151 8.34998H142.47L142.46 8.53998ZM149.14 10.71C151.69 10.71 153.46 11.18 154.32 12.25C154.723 12.7459 154.933 13.3712 154.91 14.01C154.91 16.83 151.74 17.44 149.12 17.44L148 17.38H147.55C147.55 16.73 147.55 15.86 147.55 14.91C147.55 13.67 147.55 12.23 147.6 10.91C148.108 10.8064 148.622 10.7396 149.14 10.71V10.71Z" fill="black"/>
<path d="M167.23 8.36004H167.16V8.46004C166.16 11.23 159.64 25.46 158.61 27.62L158.52 27.86H163.14V27.75C163.55 26.41 164.14 24.9 164.69 23.29L168.55 23.23H171.74H172.41C173.23 25.33 173.86 26.91 174.14 27.71L174.19 27.79H179.55L170.89 8.29004H167.22L167.23 8.36004ZM168.55 14.11C168.98 15.04 170.1 17.63 171.36 20.72H170.92H168.55H165.68C166.71 18.24 167.72 16 168.55 14.1V14.11Z" fill="black"/>
<path d="M181.73 8.53997C181.88 10.54 181.96 15.74 181.96 17.63C181.96 19.52 181.96 25.17 181.66 27.63V27.83H187.12V27.63C186.83 25.11 186.81 19.32 186.81 17.63C186.81 16.27 186.81 13.25 186.99 10.81C187.4 10.81 187.99 10.72 188.46 10.72C190.99 10.72 192.77 11.19 193.61 12.26C194.011 12.7564 194.217 13.3822 194.19 14.02C194.19 16.27 192.09 17.41 190.13 17.52C189.746 17.5369 189.36 17.5168 188.98 17.46L188.6 17.4L188.81 17.76C190.75 20.59 193.65 25.48 194.81 27.76V27.84H200.64L200.49 27.58C200.25 27.25 196.49 21.66 194.84 19.27L194.7 19.13C197.7 18.23 199.14 16.56 199.14 13.99C199.14 9.49997 194.27 8.42997 190.14 8.33997H181.64L181.73 8.53997Z" fill="black"/>
<path d="M208.42 8.35999H203.22V8.53999C203.35 10.54 203.46 15.74 203.46 17.63C203.46 19.36 203.46 25.15 203.19 27.63V27.83H208.58V27.63C208.37 25.11 208.31 19.32 208.31 17.63C208.31 15.75 208.44 10.63 208.58 8.53999V8.35999H208.42Z" fill="black"/>
<path d="M213.51 8.53996C213.67 10.54 213.76 15.74 213.76 17.63C213.76 19.52 213.76 25.17 213.49 27.63V27.83H222.57C227.01 27.83 231.74 26.44 231.74 22.48C231.74 20 229.94 18.17 226.56 17.17C229.05 16.5 230.73 14.8 230.73 12.86C230.73 9.62996 227.01 8.40996 223.55 8.32996H213.55L213.51 8.53996ZM220.51 10.54C224.32 10.54 225.71 11.34 225.71 13.4C225.725 13.9345 225.54 14.4554 225.19 14.86C224.5 15.73 223.04 16.18 221.25 16.07H221.16L220.16 18.82H221.16C222.043 18.7292 222.935 18.8355 223.772 19.1312C224.609 19.4269 225.37 19.9047 226 20.53C226.434 21.0209 226.673 21.6545 226.67 22.31C226.67 24.46 224.77 25.57 221.01 25.57C220.41 25.57 219.39 25.57 218.75 25.57C218.59 22.7 218.59 18.81 218.59 17.64C218.59 16.28 218.59 13.26 218.75 10.64C219.332 10.547 219.921 10.5069 220.51 10.52V10.54Z" fill="black"/>
<path d="M245.05 8.35997H241.4V8.44998C240.31 11.45 233.4 26.37 232.85 27.6L232.75 27.86H237.4V27.74C237.79 26.4 238.33 24.9 238.93 23.26L242.77 23.2L245.97 23.25H246.65C247.49 25.34 248.11 26.94 248.39 27.73V27.85H253.77L245.12 8.34998L245.05 8.35997ZM242.81 14.09C243.25 15 244.36 17.59 245.62 20.69H245.19H242.81L240 20.7C241 18.21 242 16 242.81 14.09Z" fill="black"/>
<path d="M255.34 13.4C255.34 16.83 258.77 18.2 261.81 19.47C264.17 20.42 266.65 21.41 266.65 23.04C266.684 23.4742 266.547 23.9044 266.27 24.24C265.7 24.91 264.55 25.24 262.72 25.09C260.58 24.9259 258.491 24.3486 256.57 23.39L255.67 22.96V27.2L256.28 27.35L256.64 27.41C258.436 27.8908 260.282 28.1593 262.14 28.21C267.87 28.21 271.29 25.92 271.29 22.15C271.29 18.6 267.76 17.22 264.64 15.98C262.34 15.05 259.96 14.13 259.96 12.61C259.96 12.17 259.96 10.89 262.96 10.89C264.867 11.0007 266.737 11.4582 268.48 12.24L269.58 12.7V8.44002L268.49 8.24002C266.887 7.88314 265.252 7.68552 263.61 7.65002C258.64 7.65002 255.34 10 255.34 13.4Z" fill="black"/>
<path d="M77.6401 35V36.84H72.4301V40.47H77.4301V42.18H72.4301V46H77.9201V47.84H70.3401V35H77.6401Z" fill="black"/>
<path d="M82.86 34V45.57C82.8454 45.6688 82.8539 45.7696 82.8846 45.8646C82.9153 45.9596 82.9675 46.0463 83.0372 46.1178C83.1068 46.1894 83.192 46.244 83.2861 46.2773C83.3803 46.3106 83.4808 46.3218 83.58 46.31C84.0162 46.3144 84.4464 46.2077 84.83 46L85 47.51C84.3446 47.8851 83.6049 48.0881 82.85 48.1C81.13 48.1 80.7 46.9 80.7 45.61V34.41L82.86 34Z" fill="black"/>
<path d="M97.08 35C100.6 35 102.49 36.86 102.49 41.26C102.49 46.01 100.38 47.89 97.02 47.89H92.73V35H97.08ZM94.82 46H96.95C99.04 46 100.33 45 100.33 41.23C100.33 37.8 99.09 36.79 96.95 36.79H94.82V46Z" fill="black"/>
<path d="M107.36 49.35C107.366 49.6872 107.3 50.0219 107.167 50.3319C107.034 50.6419 106.837 50.92 106.588 51.1479C106.34 51.3758 106.045 51.5482 105.725 51.6537C105.405 51.7592 105.065 51.7955 104.73 51.76C104.033 51.7552 103.347 51.5838 102.73 51.26L103.06 49.66C103.443 49.8395 103.857 49.9447 104.28 49.97C104.415 49.9861 104.552 49.9713 104.681 49.9267C104.81 49.8821 104.926 49.8089 105.023 49.7127C105.119 49.6164 105.192 49.4995 105.237 49.3709C105.281 49.2423 105.296 49.1052 105.28 48.97V38.08H107.39L107.36 49.35ZM107.36 34.6V36.77H105.25V34.6H107.36Z" fill="black"/>
<path d="M115.26 40.8001C115.26 39.8801 114.62 39.5101 113.75 39.5101C113.54 39.486 113.328 39.5067 113.127 39.5707C112.927 39.6347 112.742 39.7407 112.585 39.8815C112.428 40.0223 112.303 40.1949 112.217 40.3877C112.132 40.5805 112.089 40.7892 112.09 41.0001L110.24 40.8101C110.3 38.8101 111.96 37.8101 113.89 37.8101C116.02 37.8101 117.37 38.8101 117.37 40.5901V45.6901C117.37 46.1501 117.6 46.3501 117.93 46.3501C118.296 46.3267 118.645 46.1904 118.93 45.9601L119.06 47.4201C118.569 47.854 117.935 48.0893 117.28 48.0801C117.076 48.1036 116.87 48.0866 116.673 48.0298C116.476 47.973 116.292 47.8777 116.132 47.7493C115.972 47.621 115.839 47.4621 115.741 47.282C115.643 47.1019 115.581 46.9041 115.56 46.7001C115.161 47.1268 114.679 47.4689 114.145 47.7059C113.611 47.943 113.034 48.0702 112.45 48.0801C112.101 48.1042 111.751 48.0528 111.424 47.9292C111.097 47.8057 110.8 47.613 110.554 47.3642C110.308 47.1155 110.119 46.8166 109.999 46.4879C109.879 46.1593 109.832 45.8087 109.86 45.4601C109.86 42.9801 112.28 41.8701 115.25 41.8901L115.26 40.8001ZM115.26 43.4301C113.35 43.3701 111.93 44.0201 111.93 45.2101C111.912 45.3711 111.931 45.5342 111.985 45.6869C112.039 45.8397 112.128 45.9781 112.243 46.0917C112.359 46.2054 112.499 46.2913 112.652 46.343C112.806 46.3947 112.969 46.4108 113.13 46.3901C113.538 46.3627 113.937 46.254 114.303 46.0702C114.669 45.8865 114.994 45.6314 115.26 45.3201V43.4301Z" fill="black"/>
<path d="M128.18 38.08V39.35L123.18 46.22H128.25V47.86H120.54V46.64L125.54 39.72H120.63V38.08H128.18Z" fill="black"/>
<path d="M135.32 40.8001C135.32 39.8801 134.68 39.5101 133.81 39.5101C133.601 39.486 133.388 39.5067 133.187 39.5707C132.987 39.6347 132.802 39.7407 132.645 39.8815C132.488 40.0223 132.363 40.1949 132.277 40.3877C132.192 40.5805 132.149 40.7892 132.15 41.0001L130.29 40.8101C130.35 38.8101 132.01 37.8101 133.94 37.8101C136.07 37.8101 137.42 38.8101 137.42 40.5901V45.6901C137.42 46.1501 137.65 46.3501 137.98 46.3501C138.346 46.3267 138.695 46.1904 138.98 45.9601L139.11 47.4201C138.62 47.854 137.985 48.0893 137.33 48.0801C137.126 48.1036 136.92 48.0866 136.723 48.0298C136.526 47.973 136.342 47.8777 136.182 47.7493C136.022 47.621 135.889 47.4621 135.791 47.282C135.693 47.1019 135.631 46.9041 135.61 46.7001C135.211 47.1268 134.729 47.4689 134.195 47.7059C133.661 47.943 133.084 48.0702 132.5 48.0801C132.151 48.1042 131.801 48.0528 131.474 47.9292C131.147 47.8057 130.85 47.613 130.604 47.3642C130.358 47.1155 130.169 46.8166 130.049 46.4879C129.929 46.1593 129.882 45.8087 129.91 45.4601C129.91 42.9801 132.33 41.8701 135.3 41.8901L135.32 40.8001ZM135.32 43.4301C133.41 43.3701 131.99 44.0201 131.99 45.2101C131.972 45.3711 131.991 45.5342 132.045 45.6869C132.099 45.8397 132.188 45.9781 132.303 46.0917C132.419 46.2054 132.559 46.2913 132.712 46.343C132.866 46.3947 133.029 46.4108 133.19 46.3901C133.598 46.3627 133.997 46.254 134.363 46.0702C134.729 45.8865 135.054 45.6314 135.32 45.3201V43.4301Z" fill="black"/>
<path d="M141.41 34.54V36.44H139.69V34.54H141.41ZM143.13 38.08V47.86H141V38.08H143.13ZM144.48 34.54V36.44H142.76V34.54H144.48Z" fill="black"/>
<path d="M148.31 38.08V39.2C148.63 38.7882 149.037 38.4527 149.502 38.2175C149.967 37.9823 150.479 37.8533 151 37.84C152.53 37.84 152.87 39.2 152.87 40.64L151 40.8C151 40.21 150.92 39.8 150.34 39.8C149.672 39.9338 149.067 40.2855 148.62 40.8V47.8H146.51V38.08H148.31Z" fill="black"/>
</g>
<path d="M71.0568 65V56.2727H72.1136V64.0625H76.1705V65H71.0568ZM79.5966 65.1534C79.1818 65.1534 78.8054 65.0753 78.4673 64.919C78.1293 64.7599 77.8608 64.5312 77.6619 64.233C77.4631 63.9318 77.3636 63.5682 77.3636 63.142C77.3636 62.767 77.4375 62.4631 77.5852 62.2301C77.733 61.9943 77.9304 61.8097 78.1776 61.6761C78.4247 61.5426 78.6974 61.4432 78.9957 61.3778C79.2969 61.3097 79.5994 61.2557 79.9034 61.2159C80.3011 61.1648 80.6236 61.1264 80.8707 61.1009C81.1207 61.0724 81.3026 61.0256 81.4162 60.9602C81.5327 60.8949 81.5909 60.7812 81.5909 60.6193V60.5852C81.5909 60.1648 81.4759 59.8381 81.2457 59.6051C81.0185 59.3722 80.6733 59.2557 80.2102 59.2557C79.7301 59.2557 79.3537 59.3608 79.081 59.571C78.8082 59.7812 78.6165 60.0057 78.5057 60.2443L77.5511 59.9034C77.7216 59.5057 77.9489 59.196 78.233 58.9744C78.5199 58.75 78.8324 58.5937 79.1705 58.5057C79.5114 58.4148 79.8466 58.3693 80.1761 58.3693C80.3864 58.3693 80.6278 58.3949 80.9006 58.446C81.1761 58.4943 81.4418 58.5952 81.6974 58.7486C81.956 58.902 82.1705 59.1335 82.3409 59.4432C82.5114 59.7528 82.5966 60.1676 82.5966 60.6875V65H81.5909V64.1136H81.5398C81.4716 64.2557 81.358 64.4077 81.1989 64.5696C81.0398 64.7315 80.8281 64.8693 80.5639 64.983C80.2997 65.0966 79.9773 65.1534 79.5966 65.1534ZM79.75 64.25C80.1477 64.25 80.483 64.1719 80.7557 64.0156C81.0313 63.8594 81.2386 63.6577 81.3778 63.4105C81.5199 63.1634 81.5909 62.9034 81.5909 62.6307V61.7102C81.5483 61.7614 81.4545 61.8082 81.3097 61.8509C81.1676 61.8906 81.0028 61.9261 80.8153 61.9574C80.6307 61.9858 80.4503 62.0114 80.2741 62.0341C80.1009 62.054 79.9602 62.071 79.8523 62.0852C79.5909 62.1193 79.3466 62.1747 79.1193 62.2514C78.8949 62.3253 78.7131 62.4375 78.5739 62.5881C78.4375 62.7358 78.3693 62.9375 78.3693 63.1932C78.3693 63.5426 78.4986 63.8068 78.7571 63.9858C79.0185 64.1619 79.3494 64.25 79.75 64.25ZM87.9435 65V56.2727H88.9492V59.4943H89.0344C89.1083 59.3807 89.2106 59.2358 89.3413 59.0597C89.4748 58.8807 89.6651 58.7216 89.9123 58.5824C90.1623 58.4403 90.5004 58.3693 90.9265 58.3693C91.4776 58.3693 91.9634 58.5071 92.3839 58.7827C92.8043 59.0582 93.1325 59.4489 93.3683 59.9545C93.604 60.4602 93.7219 61.0568 93.7219 61.7443C93.7219 62.4375 93.604 63.0384 93.3683 63.5469C93.1325 64.0526 92.8058 64.4446 92.3881 64.723C91.9705 64.9986 91.489 65.1364 90.9435 65.1364C90.5231 65.1364 90.1864 65.0668 89.9336 64.9276C89.6808 64.7855 89.4862 64.625 89.3498 64.446C89.2134 64.2642 89.1083 64.1136 89.0344 63.9943H88.9151V65H87.9435ZM88.9322 61.7273C88.9322 62.2216 89.0046 62.6577 89.1495 63.0355C89.2944 63.4105 89.506 63.7045 89.7844 63.9176C90.0629 64.1278 90.4038 64.233 90.8072 64.233C91.2276 64.233 91.5785 64.1222 91.8597 63.9006C92.1438 63.6761 92.3569 63.375 92.4989 62.9972C92.6438 62.6165 92.7163 62.1932 92.7163 61.7273C92.7163 61.267 92.6452 60.8523 92.5032 60.483C92.364 60.1108 92.1523 59.8168 91.8683 59.6009C91.587 59.3821 91.2333 59.2727 90.8072 59.2727C90.3981 59.2727 90.0543 59.3764 89.7759 59.5838C89.4975 59.7884 89.2873 60.0753 89.1452 60.4446C89.0032 60.8111 88.9322 61.2386 88.9322 61.7273ZM97.1864 65.1534C96.7717 65.1534 96.3952 65.0753 96.0572 64.919C95.7191 64.7599 95.4506 64.5312 95.2518 64.233C95.0529 63.9318 94.9535 63.5682 94.9535 63.142C94.9535 62.767 95.0273 62.4631 95.1751 62.2301C95.3228 61.9943 95.5202 61.8097 95.7674 61.6761C96.0146 61.5426 96.2873 61.4432 96.5856 61.3778C96.8867 61.3097 97.1893 61.2557 97.4933 61.2159C97.891 61.1648 98.2134 61.1264 98.4606 61.1009C98.7106 61.0724 98.8924 61.0256 99.006 60.9602C99.1225 60.8949 99.1808 60.7812 99.1808 60.6193V60.5852C99.1808 60.1648 99.0657 59.8381 98.8356 59.6051C98.6083 59.3722 98.2631 59.2557 97.8001 59.2557C97.32 59.2557 96.9435 59.3608 96.6708 59.571C96.3981 59.7812 96.2063 60.0057 96.0955 60.2443L95.141 59.9034C95.3114 59.5057 95.5387 59.196 95.8228 58.9744C96.1097 58.75 96.4222 58.5937 96.7603 58.5057C97.1012 58.4148 97.4364 58.3693 97.766 58.3693C97.9762 58.3693 98.2177 58.3949 98.4904 58.446C98.766 58.4943 99.0316 58.5952 99.2873 58.7486C99.5458 58.902 99.7603 59.1335 99.9308 59.4432C100.101 59.7528 100.186 60.1676 100.186 60.6875V65H99.1808V64.1136H99.1296C99.0614 64.2557 98.9478 64.4077 98.7887 64.5696C98.6296 64.7315 98.418 64.8693 98.1538 64.983C97.8896 65.0966 97.5671 65.1534 97.1864 65.1534ZM97.3398 64.25C97.7376 64.25 98.0728 64.1719 98.3455 64.0156C98.6211 63.8594 98.8285 63.6577 98.9677 63.4105C99.1097 63.1634 99.1808 62.9034 99.1808 62.6307V61.7102C99.1381 61.7614 99.0444 61.8082 98.8995 61.8509C98.7575 61.8906 98.5927 61.9261 98.4052 61.9574C98.2205 61.9858 98.0401 62.0114 97.864 62.0341C97.6907 62.054 97.5501 62.071 97.4421 62.0852C97.1808 62.1193 96.9364 62.1747 96.7092 62.2514C96.4847 62.3253 96.3029 62.4375 96.1637 62.5881C96.0273 62.7358 95.9592 62.9375 95.9592 63.1932C95.9592 63.5426 96.0884 63.8068 96.3469 63.9858C96.6083 64.1619 96.9393 64.25 97.3398 64.25ZM103.028 61.0625V65H102.022V58.4545H102.994V59.4773H103.079C103.232 59.1449 103.465 58.8778 103.778 58.6761C104.09 58.4716 104.494 58.3693 104.988 58.3693C105.431 58.3693 105.819 58.4602 106.151 58.642C106.484 58.821 106.742 59.0938 106.927 59.4602C107.112 59.8239 107.204 60.2841 107.204 60.8409V65H106.198V60.9091C106.198 60.3949 106.065 59.9943 105.798 59.7074C105.531 59.4176 105.164 59.2727 104.698 59.2727C104.377 59.2727 104.09 59.3423 103.837 59.4815C103.587 59.6207 103.39 59.8239 103.245 60.0909C103.1 60.358 103.028 60.6818 103.028 61.0625ZM113.507 67.4545V63.9943H113.422C113.348 64.1136 113.243 64.2642 113.107 64.446C112.971 64.625 112.776 64.7855 112.523 64.9276C112.27 65.0668 111.934 65.1364 111.513 65.1364C110.968 65.1364 110.486 64.9986 110.069 64.723C109.651 64.4446 109.324 64.0526 109.088 63.5469C108.853 63.0384 108.735 62.4375 108.735 61.7443C108.735 61.0568 108.853 60.4602 109.088 59.9545C109.324 59.4489 109.652 59.0582 110.073 58.7827C110.493 58.5071 110.979 58.3693 111.53 58.3693C111.956 58.3693 112.293 58.4403 112.54 58.5824C112.79 58.7216 112.98 58.8807 113.111 59.0597C113.245 59.2358 113.348 59.3807 113.422 59.4943H113.542V58.4545H114.513V67.4545H113.507ZM111.65 64.233C112.053 64.233 112.394 64.1278 112.672 63.9176C112.951 63.7045 113.162 63.4105 113.307 63.0355C113.452 62.6577 113.525 62.2216 113.525 61.7273C113.525 61.2386 113.453 60.8111 113.311 60.4446C113.169 60.0753 112.959 59.7884 112.681 59.5838C112.402 59.3764 112.059 59.2727 111.65 59.2727C111.223 59.2727 110.868 59.3821 110.584 59.6009C110.303 59.8168 110.091 60.1108 109.949 60.483C109.81 60.8523 109.74 61.267 109.74 61.7273C109.74 62.1932 109.811 62.6165 109.953 62.9972C110.098 63.375 110.311 63.6761 110.593 63.9006C110.877 64.1222 111.229 64.233 111.65 64.233ZM120.479 62.3239V58.4545H121.485V65H120.479V63.892H120.411C120.257 64.2244 120.019 64.5071 119.695 64.7401C119.371 64.9702 118.962 65.0852 118.468 65.0852C118.059 65.0852 117.695 64.9957 117.377 64.8168C117.059 64.6349 116.809 64.3622 116.627 63.9986C116.445 63.6321 116.354 63.1705 116.354 62.6136V58.4545H117.36V62.5455C117.36 63.0227 117.493 63.4034 117.76 63.6875C118.03 63.9716 118.374 64.1136 118.792 64.1136C119.042 64.1136 119.296 64.0497 119.554 63.9219C119.816 63.794 120.034 63.598 120.211 63.3338C120.39 63.0696 120.479 62.733 120.479 62.3239ZM126.071 65.1364C125.44 65.1364 124.896 64.9972 124.439 64.7188C123.984 64.4375 123.634 64.0455 123.386 63.5426C123.142 63.0369 123.02 62.4489 123.02 61.7784C123.02 61.108 123.142 60.517 123.386 60.0057C123.634 59.4915 123.977 59.0909 124.418 58.804C124.861 58.5142 125.378 58.3693 125.969 58.3693C126.31 58.3693 126.646 58.4261 126.979 58.5398C127.311 58.6534 127.614 58.8381 127.886 59.0938C128.159 59.3466 128.376 59.6818 128.538 60.0994C128.7 60.517 128.781 61.0312 128.781 61.642V62.0682H123.736V61.1989H127.759C127.759 60.8295 127.685 60.5 127.537 60.2102C127.392 59.9205 127.185 59.6918 126.915 59.5241C126.648 59.3565 126.332 59.2727 125.969 59.2727C125.568 59.2727 125.222 59.3722 124.929 59.571C124.639 59.767 124.416 60.0227 124.26 60.3381C124.104 60.6534 124.026 60.9915 124.026 61.3523V61.9318C124.026 62.4261 124.111 62.8452 124.281 63.1889C124.455 63.5298 124.695 63.7898 125.001 63.9688C125.308 64.1449 125.665 64.233 126.071 64.233C126.335 64.233 126.574 64.196 126.787 64.1222C127.003 64.0455 127.189 63.9318 127.345 63.7812C127.501 63.6278 127.622 63.4375 127.707 63.2102L128.679 63.483C128.577 63.8125 128.405 64.1023 128.163 64.3523C127.922 64.5994 127.624 64.7926 127.268 64.9318C126.913 65.0682 126.514 65.1364 126.071 65.1364ZM136.158 65.1364C135.612 65.1364 135.131 64.9986 134.713 64.723C134.295 64.4446 133.969 64.0526 133.733 63.5469C133.497 63.0384 133.379 62.4375 133.379 61.7443C133.379 61.0568 133.497 60.4602 133.733 59.9545C133.969 59.4489 134.297 59.0582 134.717 58.7827C135.138 58.5071 135.624 58.3693 136.175 58.3693C136.601 58.3693 136.938 58.4403 137.185 58.5824C137.435 58.7216 137.625 58.8807 137.756 59.0597C137.889 59.2358 137.993 59.3807 138.067 59.4943H138.152V56.2727H139.158V65H138.186V63.9943H138.067C137.993 64.1136 137.888 64.2642 137.751 64.446C137.615 64.625 137.42 64.7855 137.168 64.9276C136.915 65.0668 136.578 65.1364 136.158 65.1364ZM136.294 64.233C136.697 64.233 137.038 64.1278 137.317 63.9176C137.595 63.7045 137.807 63.4105 137.952 63.0355C138.097 62.6577 138.169 62.2216 138.169 61.7273C138.169 61.2386 138.098 60.8111 137.956 60.4446C137.814 60.0753 137.604 59.7884 137.325 59.5838C137.047 59.3764 136.703 59.2727 136.294 59.2727C135.868 59.2727 135.513 59.3821 135.229 59.6009C134.947 59.8168 134.736 60.1108 134.594 60.483C134.455 60.8523 134.385 61.267 134.385 61.7273C134.385 62.1932 134.456 62.6165 134.598 62.9972C134.743 63.375 134.956 63.6761 135.237 63.9006C135.521 64.1222 135.874 64.233 136.294 64.233ZM142.009 56.2727V59.2727H141.071V56.2727H142.009ZM147.924 62.3239V58.4545H148.93V65H147.924V63.892H147.856C147.703 64.2244 147.464 64.5071 147.14 64.7401C146.816 64.9702 146.407 65.0852 145.913 65.0852C145.504 65.0852 145.14 64.9957 144.822 64.8168C144.504 64.6349 144.254 64.3622 144.072 63.9986C143.89 63.6321 143.799 63.1705 143.799 62.6136V58.4545H144.805V62.5455C144.805 63.0227 144.939 63.4034 145.206 63.6875C145.475 63.9716 145.819 64.1136 146.237 64.1136C146.487 64.1136 146.741 64.0497 147 63.9219C147.261 63.794 147.48 63.598 147.656 63.3338C147.835 63.0696 147.924 62.733 147.924 62.3239ZM151.778 61.0625V65H150.772V58.4545H151.744V59.4773H151.829C151.982 59.1449 152.215 58.8778 152.528 58.6761C152.84 58.4716 153.244 58.3693 153.738 58.3693C154.181 58.3693 154.569 58.4602 154.901 58.642C155.234 58.821 155.492 59.0938 155.677 59.4602C155.862 59.8239 155.954 60.2841 155.954 60.8409V65H154.948V60.9091C154.948 60.3949 154.815 59.9943 154.548 59.7074C154.281 59.4176 153.914 59.2727 153.448 59.2727C153.127 59.2727 152.84 59.3423 152.587 59.4815C152.337 59.6207 152.14 59.8239 151.995 60.0909C151.85 60.358 151.778 60.6818 151.778 61.0625ZM161.167 65V58.4545H162.138V59.4773H162.223C162.36 59.1278 162.58 58.8565 162.884 58.6634C163.188 58.4673 163.553 58.3693 163.979 58.3693C164.411 58.3693 164.77 58.4673 165.057 58.6634C165.347 58.8565 165.573 59.1278 165.735 59.4773H165.803C165.971 59.1392 166.222 58.8707 166.557 58.6719C166.892 58.4702 167.294 58.3693 167.763 58.3693C168.348 58.3693 168.827 58.5526 169.199 58.919C169.571 59.2827 169.757 59.8494 169.757 60.6193V65H168.752V60.6193C168.752 60.1364 168.62 59.7912 168.355 59.5838C168.091 59.3764 167.78 59.2727 167.422 59.2727C166.962 59.2727 166.605 59.4119 166.353 59.6903C166.1 59.9659 165.973 60.3153 165.973 60.7386V65H164.951V60.517C164.951 60.1449 164.83 59.8452 164.588 59.6179C164.347 59.3878 164.036 59.2727 163.655 59.2727C163.394 59.2727 163.15 59.3423 162.922 59.4815C162.698 59.6207 162.516 59.8139 162.377 60.0611C162.24 60.3054 162.172 60.5881 162.172 60.9091V65H161.167ZM174.255 65.1364C173.664 65.1364 173.146 64.9957 172.7 64.7145C172.257 64.4332 171.91 64.0398 171.66 63.5341C171.413 63.0284 171.289 62.4375 171.289 61.7614C171.289 61.0795 171.413 60.4844 171.66 59.9759C171.91 59.4673 172.257 59.0724 172.7 58.7912C173.146 58.5099 173.664 58.3693 174.255 58.3693C174.846 58.3693 175.363 58.5099 175.806 58.7912C176.252 59.0724 176.599 59.4673 176.846 59.9759C177.096 60.4844 177.221 61.0795 177.221 61.7614C177.221 62.4375 177.096 63.0284 176.846 63.5341C176.599 64.0398 176.252 64.4332 175.806 64.7145C175.363 64.9957 174.846 65.1364 174.255 65.1364ZM174.255 64.233C174.704 64.233 175.074 64.1179 175.363 63.8878C175.653 63.6577 175.868 63.3551 176.007 62.9801C176.146 62.6051 176.216 62.1989 176.216 61.7614C176.216 61.3239 176.146 60.9162 176.007 60.5384C175.868 60.1605 175.653 59.8551 175.363 59.6222C175.074 59.3892 174.704 59.2727 174.255 59.2727C173.806 59.2727 173.437 59.3892 173.147 59.6222C172.858 59.8551 172.643 60.1605 172.504 60.5384C172.365 60.9162 172.295 61.3239 172.295 61.7614C172.295 62.1989 172.365 62.6051 172.504 62.9801C172.643 63.3551 172.858 63.6577 173.147 63.8878C173.437 64.1179 173.806 64.233 174.255 64.233ZM179.762 61.0625V65H178.756V58.4545H179.728V59.4773H179.813C179.967 59.1449 180.2 58.8778 180.512 58.6761C180.825 58.4716 181.228 58.3693 181.722 58.3693C182.165 58.3693 182.553 58.4602 182.886 58.642C183.218 58.821 183.477 59.0938 183.661 59.4602C183.846 59.8239 183.938 60.2841 183.938 60.8409V65H182.933V60.9091C182.933 60.3949 182.799 59.9943 182.532 59.7074C182.265 59.4176 181.898 59.2727 181.433 59.2727C181.112 59.2727 180.825 59.3423 180.572 59.4815C180.322 59.6207 180.124 59.8239 179.979 60.0909C179.835 60.358 179.762 60.6818 179.762 61.0625ZM188.248 65.1364C187.702 65.1364 187.221 64.9986 186.803 64.723C186.385 64.4446 186.059 64.0526 185.823 63.5469C185.587 63.0384 185.469 62.4375 185.469 61.7443C185.469 61.0568 185.587 60.4602 185.823 59.9545C186.059 59.4489 186.387 59.0582 186.807 58.7827C187.228 58.5071 187.713 58.3693 188.265 58.3693C188.691 58.3693 189.027 58.4403 189.275 58.5824C189.525 58.7216 189.715 58.8807 189.846 59.0597C189.979 59.2358 190.083 59.3807 190.157 59.4943H190.242V56.2727H191.248V65H190.276V63.9943H190.157C190.083 64.1136 189.978 64.2642 189.841 64.446C189.705 64.625 189.51 64.7855 189.257 64.9276C189.005 65.0668 188.668 65.1364 188.248 65.1364ZM188.384 64.233C188.787 64.233 189.128 64.1278 189.407 63.9176C189.685 63.7045 189.897 63.4105 190.042 63.0355C190.186 62.6577 190.259 62.2216 190.259 61.7273C190.259 61.2386 190.188 60.8111 190.046 60.4446C189.904 60.0753 189.694 59.7884 189.415 59.5838C189.137 59.3764 188.793 59.2727 188.384 59.2727C187.958 59.2727 187.603 59.3821 187.319 59.6009C187.037 59.8168 186.826 60.1108 186.684 60.483C186.544 60.8523 186.475 61.267 186.475 61.7273C186.475 62.1932 186.546 62.6165 186.688 62.9972C186.833 63.375 187.046 63.6761 187.327 63.9006C187.611 64.1222 187.963 64.233 188.384 64.233ZM195.973 65.1364C195.343 65.1364 194.799 64.9972 194.341 64.7188C193.887 64.4375 193.536 64.0455 193.289 63.5426C193.044 63.0369 192.922 62.4489 192.922 61.7784C192.922 61.108 193.044 60.517 193.289 60.0057C193.536 59.4915 193.88 59.0909 194.32 58.804C194.763 58.5142 195.28 58.3693 195.871 58.3693C196.212 58.3693 196.549 58.4261 196.881 58.5398C197.213 58.6534 197.516 58.8381 197.789 59.0938C198.061 59.3466 198.279 59.6818 198.441 60.0994C198.603 60.517 198.684 61.0312 198.684 61.642V62.0682H193.638V61.1989H197.661C197.661 60.8295 197.587 60.5 197.439 60.2102C197.294 59.9205 197.087 59.6918 196.817 59.5241C196.55 59.3565 196.235 59.2727 195.871 59.2727C195.471 59.2727 195.124 59.3722 194.831 59.571C194.542 59.767 194.319 60.0227 194.162 60.3381C194.006 60.6534 193.928 60.9915 193.928 61.3523V61.9318C193.928 62.4261 194.013 62.8452 194.184 63.1889C194.357 63.5298 194.597 63.7898 194.904 63.9688C195.211 64.1449 195.567 64.233 195.973 64.233C196.238 64.233 196.476 64.196 196.689 64.1222C196.905 64.0455 197.091 63.9318 197.248 63.7812C197.404 63.6278 197.525 63.4375 197.61 63.2102L198.581 63.483C198.479 63.8125 198.307 64.1023 198.066 64.3523C197.824 64.5994 197.526 64.7926 197.171 64.9318C196.816 65.0682 196.417 65.1364 195.973 65.1364ZM208.054 67.4545V63.9943H207.969C207.895 64.1136 207.79 64.2642 207.654 64.446C207.517 64.625 207.323 64.7855 207.07 64.9276C206.817 65.0668 206.48 65.1364 206.06 65.1364C205.515 65.1364 205.033 64.9986 204.615 64.723C204.198 64.4446 203.871 64.0526 203.635 63.5469C203.4 63.0384 203.282 62.4375 203.282 61.7443C203.282 61.0568 203.4 60.4602 203.635 59.9545C203.871 59.4489 204.199 59.0582 204.62 58.7827C205.04 58.5071 205.526 58.3693 206.077 58.3693C206.503 58.3693 206.84 58.4403 207.087 58.5824C207.337 58.7216 207.527 58.8807 207.658 59.0597C207.792 59.2358 207.895 59.3807 207.969 59.4943H208.088V58.4545H209.06V67.4545H208.054ZM206.196 64.233C206.6 64.233 206.941 64.1278 207.219 63.9176C207.498 63.7045 207.709 63.4105 207.854 63.0355C207.999 62.6577 208.071 62.2216 208.071 61.7273C208.071 61.2386 208 60.8111 207.858 60.4446C207.716 60.0753 207.506 59.7884 207.228 59.5838C206.949 59.3764 206.605 59.2727 206.196 59.2727C205.77 59.2727 205.415 59.3821 205.131 59.6009C204.85 59.8168 204.638 60.1108 204.496 60.483C204.357 60.8523 204.287 61.267 204.287 61.7273C204.287 62.1932 204.358 62.6165 204.5 62.9972C204.645 63.375 204.858 63.6761 205.14 63.9006C205.424 64.1222 205.776 64.233 206.196 64.233ZM215.026 62.3239V58.4545H216.032V65H215.026V63.892H214.958C214.804 64.2244 214.566 64.5071 214.242 64.7401C213.918 64.9702 213.509 65.0852 213.015 65.0852C212.605 65.0852 212.242 64.9957 211.924 64.8168C211.605 64.6349 211.355 64.3622 211.174 63.9986C210.992 63.6321 210.901 63.1705 210.901 62.6136V58.4545H211.907V62.5455C211.907 63.0227 212.04 63.4034 212.307 63.6875C212.577 63.9716 212.921 64.1136 213.338 64.1136C213.588 64.1136 213.843 64.0497 214.101 63.9219C214.363 63.794 214.581 63.598 214.757 63.3338C214.936 63.0696 215.026 62.733 215.026 62.3239ZM217.874 65V58.4545H218.879V65H217.874ZM218.385 57.3636C218.189 57.3636 218.02 57.2969 217.878 57.1634C217.739 57.0298 217.669 56.8693 217.669 56.6818C217.669 56.4943 217.739 56.3338 217.878 56.2003C218.02 56.0668 218.189 56 218.385 56C218.581 56 218.749 56.0668 218.888 56.2003C219.03 56.3338 219.101 56.4943 219.101 56.6818C219.101 56.8693 219.03 57.0298 218.888 57.1634C218.749 57.2969 218.581 57.3636 218.385 57.3636ZM226.755 65.1364C226.142 65.1364 225.613 64.9915 225.17 64.7017C224.727 64.4119 224.386 64.0128 224.147 63.5043C223.909 62.9957 223.789 62.4148 223.789 61.7614C223.789 61.0966 223.912 60.5099 224.156 60.0014C224.403 59.4901 224.747 59.0909 225.187 58.804C225.63 58.5142 226.147 58.3693 226.738 58.3693C227.199 58.3693 227.613 58.4545 227.983 58.625C228.352 58.7955 228.654 59.0341 228.89 59.3409C229.126 59.6477 229.272 60.0057 229.329 60.4148H228.324C228.247 60.1165 228.076 59.8523 227.812 59.6222C227.551 59.3892 227.199 59.2727 226.755 59.2727C226.363 59.2727 226.02 59.375 225.724 59.5795C225.431 59.7812 225.203 60.0668 225.038 60.4361C224.876 60.8026 224.795 61.233 224.795 61.7273C224.795 62.233 224.875 62.6733 225.034 63.0483C225.196 63.4233 225.423 63.7145 225.716 63.9219C226.011 64.1293 226.358 64.233 226.755 64.233C227.017 64.233 227.254 64.1875 227.467 64.0966C227.68 64.0057 227.86 63.875 228.008 63.7045C228.156 63.5341 228.261 63.3295 228.324 63.0909H229.329C229.272 63.4773 229.132 63.8253 228.907 64.1349C228.686 64.4418 228.392 64.6861 228.025 64.8679C227.662 65.0469 227.238 65.1364 226.755 65.1364ZM231.805 61.0625V65H230.799V56.2727H231.805V59.4773H231.89C232.044 59.1392 232.274 58.8707 232.581 58.6719C232.89 58.4702 233.302 58.3693 233.816 58.3693C234.262 58.3693 234.653 58.4588 234.988 58.6378C235.324 58.8139 235.583 59.0852 235.768 59.4517C235.956 59.8153 236.049 60.2784 236.049 60.8409V65H235.044V60.9091C235.044 60.3892 234.909 59.9872 234.639 59.7031C234.372 59.4162 234.001 59.2727 233.527 59.2727C233.197 59.2727 232.902 59.3423 232.64 59.4815C232.382 59.6207 232.177 59.8239 232.027 60.0909C231.879 60.358 231.805 60.6818 231.805 61.0625ZM239.815 65.1534C239.401 65.1534 239.024 65.0753 238.686 64.919C238.348 64.7599 238.08 64.5312 237.881 64.233C237.682 63.9318 237.582 63.5682 237.582 63.142C237.582 62.767 237.656 62.4631 237.804 62.2301C237.952 61.9943 238.149 61.8097 238.396 61.6761C238.643 61.5426 238.916 61.4432 239.214 61.3778C239.516 61.3097 239.818 61.2557 240.122 61.2159C240.52 61.1648 240.842 61.1264 241.089 61.1009C241.339 61.0724 241.521 61.0256 241.635 60.9602C241.751 60.8949 241.81 60.7812 241.81 60.6193V60.5852C241.81 60.1648 241.695 59.8381 241.464 59.6051C241.237 59.3722 240.892 59.2557 240.429 59.2557C239.949 59.2557 239.572 59.3608 239.3 59.571C239.027 59.7812 238.835 60.0057 238.724 60.2443L237.77 59.9034C237.94 59.5057 238.168 59.196 238.452 58.9744C238.739 58.75 239.051 58.5937 239.389 58.5057C239.73 58.4148 240.065 58.3693 240.395 58.3693C240.605 58.3693 240.847 58.3949 241.119 58.446C241.395 58.4943 241.661 58.5952 241.916 58.7486C242.175 58.902 242.389 59.1335 242.56 59.4432C242.73 59.7528 242.815 60.1676 242.815 60.6875V65H241.81V64.1136H241.759C241.69 64.2557 241.577 64.4077 241.418 64.5696C241.259 64.7315 241.047 64.8693 240.783 64.983C240.518 65.0966 240.196 65.1534 239.815 65.1534ZM239.969 64.25C240.366 64.25 240.702 64.1719 240.974 64.0156C241.25 63.8594 241.457 63.6577 241.597 63.4105C241.739 63.1634 241.81 62.9034 241.81 62.6307V61.7102C241.767 61.7614 241.673 61.8082 241.528 61.8509C241.386 61.8906 241.222 61.9261 241.034 61.9574C240.849 61.9858 240.669 62.0114 240.493 62.0341C240.32 62.054 240.179 62.071 240.071 62.0852C239.81 62.1193 239.565 62.1747 239.338 62.2514C239.114 62.3253 238.932 62.4375 238.793 62.5881C238.656 62.7358 238.588 62.9375 238.588 63.1932C238.588 63.5426 238.717 63.8068 238.976 63.9858C239.237 64.1619 239.568 64.25 239.969 64.25ZM245.657 61.0625V65H244.651V58.4545H245.623V59.4773H245.708C245.861 59.1449 246.094 58.8778 246.407 58.6761C246.719 58.4716 247.123 58.3693 247.617 58.3693C248.06 58.3693 248.448 58.4602 248.78 58.642C249.113 58.821 249.371 59.0938 249.556 59.4602C249.74 59.8239 249.833 60.2841 249.833 60.8409V65H248.827V60.9091C248.827 60.3949 248.694 59.9943 248.426 59.7074C248.159 59.4176 247.793 59.2727 247.327 59.2727C247.006 59.2727 246.719 59.3423 246.466 59.4815C246.216 59.6207 246.019 59.8239 245.874 60.0909C245.729 60.358 245.657 60.6818 245.657 61.0625ZM254.312 67.5909C253.827 67.5909 253.409 67.5284 253.06 67.4034C252.71 67.2812 252.419 67.1193 252.186 66.9176C251.956 66.7188 251.773 66.5057 251.636 66.2784L252.438 65.7159C252.528 65.8352 252.643 65.9716 252.783 66.125C252.922 66.2812 253.112 66.4162 253.354 66.5298C253.598 66.6463 253.918 66.7045 254.312 66.7045C254.841 66.7045 255.277 66.5767 255.621 66.321C255.964 66.0653 256.136 65.6648 256.136 65.1193V63.7898H256.051C255.977 63.9091 255.872 64.0568 255.736 64.233C255.602 64.4062 255.409 64.5611 255.156 64.6974C254.906 64.831 254.568 64.8977 254.142 64.8977C253.614 64.8977 253.139 64.7727 252.719 64.5227C252.301 64.2727 251.97 63.9091 251.726 63.4318C251.484 62.9545 251.364 62.375 251.364 61.6932C251.364 61.0227 251.482 60.4389 251.717 59.9418C251.953 59.4418 252.281 59.0554 252.702 58.7827C253.122 58.5071 253.608 58.3693 254.159 58.3693C254.585 58.3693 254.923 58.4403 255.173 58.5824C255.426 58.7216 255.619 58.8807 255.753 59.0597C255.889 59.2358 255.994 59.3807 256.068 59.4943H256.17V58.4545H257.142V65.1875C257.142 65.75 257.014 66.2074 256.759 66.5597C256.506 66.9148 256.165 67.1747 255.736 67.3395C255.31 67.5071 254.835 67.5909 254.312 67.5909ZM254.278 63.9943C254.682 63.9943 255.023 63.902 255.301 63.7173C255.58 63.5327 255.791 63.267 255.936 62.9205C256.081 62.5739 256.153 62.1591 256.153 61.6761C256.153 61.2045 256.082 60.7884 255.94 60.4276C255.798 60.0668 255.588 59.7841 255.31 59.5795C255.031 59.375 254.688 59.2727 254.278 59.2727C253.852 59.2727 253.497 59.3807 253.213 59.5966C252.932 59.8125 252.72 60.1023 252.578 60.4659C252.439 60.8295 252.369 61.233 252.369 61.6761C252.369 62.1307 252.44 62.5327 252.582 62.8821C252.727 63.2287 252.94 63.5014 253.222 63.7003C253.506 63.8963 253.858 63.9943 254.278 63.9943ZM261.727 65.1364C261.097 65.1364 260.553 64.9972 260.095 64.7188C259.641 64.4375 259.29 64.0455 259.043 63.5426C258.798 63.0369 258.676 62.4489 258.676 61.7784C258.676 61.108 258.798 60.517 259.043 60.0057C259.29 59.4915 259.634 59.0909 260.074 58.804C260.517 58.5142 261.034 58.3693 261.625 58.3693C261.966 58.3693 262.303 58.4261 262.635 58.5398C262.967 58.6534 263.27 58.8381 263.543 59.0938C263.815 59.3466 264.033 59.6818 264.195 60.0994C264.357 60.517 264.438 61.0312 264.438 61.642V62.0682H259.392V61.1989H263.415C263.415 60.8295 263.341 60.5 263.193 60.2102C263.048 59.9205 262.841 59.6918 262.571 59.5241C262.304 59.3565 261.989 59.2727 261.625 59.2727C261.224 59.2727 260.878 59.3722 260.585 59.571C260.295 59.767 260.072 60.0227 259.916 60.3381C259.76 60.6534 259.682 60.9915 259.682 61.3523V61.9318C259.682 62.4261 259.767 62.8452 259.938 63.1889C260.111 63.5298 260.351 63.7898 260.658 63.9688C260.964 64.1449 261.321 64.233 261.727 64.233C261.991 64.233 262.23 64.196 262.443 64.1222C262.659 64.0455 262.845 63.9318 263.001 63.7812C263.158 63.6278 263.278 63.4375 263.364 63.2102L264.335 63.483C264.233 63.8125 264.061 64.1023 263.82 64.3523C263.578 64.5994 263.28 64.7926 262.925 64.9318C262.57 65.0682 262.17 65.1364 261.727 65.1364Z" fill="#008C58"/>
<defs>
<linearGradient id="paint0_linear_39_138" x1="28.06" y1="-1.38" x2="28.06" y2="57.87" gradientUnits="userSpaceOnUse">
<stop stop-color="#00774A"/>
<stop offset="0.6" stop-color="#8AC9AD"/>
<stop offset="1" stop-color="#00965F"/>
</linearGradient>
<linearGradient id="paint1_linear_39_138" x1="27.9701" y1="-13.94" x2="27.9701" y2="52.64" gradientUnits="userSpaceOnUse">
<stop stop-color="#00965F"/>
<stop offset="0.3" stop-color="#8AC9AD"/>
<stop offset="0.55" stop-color="#00965F"/>
<stop offset="0.84" stop-color="#00774A"/>
<stop offset="0.89" stop-color="#008053"/>
<stop offset="0.98" stop-color="#00986A"/>
<stop offset="1" stop-color="#009E70"/>
</linearGradient>
<linearGradient id="paint2_linear_39_138" x1="38.64" y1="48.96" x2="38.64" y2="5.87999" gradientUnits="userSpaceOnUse">
<stop stop-color="#00A87C"/>
<stop offset="1" stop-color="#00965F"/>
</linearGradient>
<linearGradient id="paint3_linear_39_138" x1="11.91" y1="48.96" x2="11.91" y2="5.85999" gradientUnits="userSpaceOnUse">
<stop stop-color="#00A87C"/>
<stop offset="1" stop-color="#00965F"/>
</linearGradient>
<linearGradient id="paint4_linear_39_138" x1="20.2299" y1="48.9501" x2="20.2299" y2="5.88006" gradientUnits="userSpaceOnUse">
<stop stop-color="#00A87C"/>
<stop offset="1" stop-color="#00965F"/>
</linearGradient>
<linearGradient id="paint5_linear_39_138" x1="27.4301" y1="48.96" x2="27.4301" y2="5.87002" gradientUnits="userSpaceOnUse">
<stop stop-color="#00A87C"/>
<stop offset="1" stop-color="#00965F"/>
</linearGradient>
<clipPath id="clip0_39_138">
<rect width="271.3" height="56.13" fill="white"/>
</clipPath>
</defs>
</svg>
