<svg width="384" height="384" viewBox="0 0 384 384" fill="none" xmlns="http://www.w3.org/2000/svg">
<path d="M192 16C157.191 16 123.163 26.3222 94.2197 45.6613C65.2767 65.0005 42.7183 92.4879 29.3973 124.648C16.0763 156.808 12.5909 192.195 19.3819 226.336C26.1729 260.477 42.9352 291.837 67.5493 316.451C92.1633 341.065 123.524 357.827 157.664 364.618C191.805 371.409 227.193 367.924 259.352 354.603C291.512 341.282 319 318.723 338.339 289.78C357.678 260.837 368 226.81 368 192C368 145.322 349.457 100.556 316.451 67.5492C283.444 34.5428 238.678 16 192 16Z" stroke="#0FA958" stroke-width="32" stroke-miterlimit="10"/>
<path d="M136 138.29C136 138.29 136.84 120.79 155.57 105.72C166.68 96.77 180 94.18 192 94C202.93 93.86 212.69 95.67 218.53 98.45C228.53 103.21 248 114.83 248 139.54C248 165.54 231 177.35 211.63 190.34C192.26 203.33 187 217.43 187 232" stroke="#0FA958" stroke-width="28" stroke-miterlimit="10" stroke-linecap="round"/>
<path d="M186 304C197.046 304 206 295.046 206 284C206 272.954 197.046 264 186 264C174.954 264 166 272.954 166 284C166 295.046 174.954 304 186 304Z" fill="#0FA958"/>
</svg>
