<svg width="272" height="57" viewBox="0 0 272 57" fill="none" xmlns="http://www.w3.org/2000/svg">
<path d="M56.13 0H0V56.13H56.13V0Z" fill="url(#paint0_linear_101_32)"/>
<path d="M54.3901 28.39C54.3901 40.11 54.9301 52.1 54.9301 52.1C54.9596 52.3797 54.9298 52.6626 54.8426 52.93C54.7554 53.1974 54.6128 53.4435 54.424 53.652C54.2353 53.8606 54.0047 54.027 53.7472 54.1404C53.4898 54.2538 53.2113 54.3116 52.9301 54.31H4.38006C3.29006 54.31 2.54006 53.31 2.38006 52.1C1.38978 43.5064 0.928912 34.8601 1.00006 26.21C1.00006 10.56 2.40006 3.21 2.40006 3.21C2.58006 1.91 3.30006 1 4.38006 1H53.0001C53.2773 1.01148 53.5494 1.07803 53.8006 1.19578C54.0518 1.31352 54.2771 1.48011 54.4633 1.68582C54.6494 1.89153 54.7928 2.13225 54.8849 2.39393C54.9771 2.65562 55.0162 2.93303 55.0001 3.21C55.0001 3.21 54.3901 16.67 54.3901 28.39Z" fill="url(#paint1_linear_101_32)"/>
<path d="M43.58 15.16C40.11 17.16 39.05 17.36 35.28 19.62L35.46 19.2C36.9778 17.6524 38.3627 15.9798 39.6 14.2C35.5282 14.3743 31.4744 14.8421 27.47 15.6V15.6L27.66 15.21C31.643 13.4981 35.826 12.2953 40.11 11.63C39.35 10.57 33.2 7.23999 31.66 6.62999L31.84 6.23999C36.5794 6.87846 41.1675 8.35479 45.39 10.6C46.8386 10.2475 48.3198 10.0464 49.81 9.99999C49.81 9.99999 49.5 11.27 47.2 12.85C47.77 14.38 46.4 22.85 45.27 25.09C45.21 21.56 44.9 17.1 43.58 15.16Z" fill="url(#paint2_linear_101_32)"/>
<path d="M18.22 45.5L18.4 45.11C16.56 44.39 14.71 43.83 13.22 42.42C13.6815 41.1345 14.3138 39.9169 15.1 38.8V38.8L15.28 38.4C13.7 38.64 12.28 39.22 10.89 39.49C9.80997 37.59 9.38997 34.99 8.88997 32.49L8.70997 32.88C8.35523 35.23 8.35523 37.62 8.70997 39.97V39.97C7.67592 40.1587 6.6541 40.4092 5.64997 40.72L5.46997 41.11C6.8556 41.9895 8.2951 42.781 9.77997 43.48V43.48C10.539 45.2344 11.6327 46.824 13 48.16L13.18 47.77C12.8192 46.7571 12.6562 45.6843 12.7 44.61V44.61C14.4909 45.1563 16.3481 45.4557 18.22 45.5V45.5Z" fill="url(#paint3_linear_101_32)"/>
<path d="M23.3399 17.3101C22.8092 18.2911 22.361 19.3147 21.9999 20.3701H21.8599C25.1409 20.8369 28.3251 21.8296 31.2899 23.3101L31.1099 23.7001C28.3101 23.1157 25.4417 22.9305 22.5899 23.1501V23.1501C21.9073 23.1612 21.2314 23.2862 20.5899 23.5201C19.7624 25.7202 19.1757 28.0035 18.8399 30.3301L18.6599 30.7201C17.8399 28.7201 16.6599 24.8101 16.6599 24.8101C14.3999 26.0201 9.18994 30.9101 9.18994 30.9101C10.6394 27.8176 12.604 24.994 14.9999 22.5601V22.5601C13.9999 21.5601 11.3799 21.0401 9.46994 20.9601L9.64994 20.5701C11.3892 20.2219 13.1564 20.0311 14.9299 20.0001V20.0001C15.98 19.9576 17.0317 19.9743 18.0799 20.0501V20.0501C19.6427 18.81 21.4281 17.88 23.3399 17.3101V17.3101Z" fill="url(#paint4_linear_101_32)"/>
<path d="M28.8401 41.94C27.9301 43.17 27.1601 44.14 26.1601 45.26C24.6388 45.5258 23.0921 45.6164 21.5501 45.53L21.3701 45.92C22.3514 46.4232 23.3982 46.7867 24.4801 47V47C23.5788 47.7185 22.6263 48.3702 21.6301 48.95L21.4501 49.34C23.4682 48.8887 25.4136 48.1583 27.2301 47.17V47.17C28.0141 47.203 28.7992 47.146 29.5701 47V47L29.7501 46.61C29.6401 46.21 29.2901 45.97 29.1801 45.42C30.6409 44.266 32.0209 43.013 33.3101 41.67V41.67L33.5001 41.28C32.0774 42.3736 30.573 43.3565 29.0001 44.22V44.22C28.9301 43.45 28.8801 42.8 28.8401 41.94Z" fill="url(#paint5_linear_101_32)"/>
<path d="M43.7599 14.76C40.2999 16.76 39.2399 16.97 35.4699 19.22C37.0648 17.5593 38.5072 15.7588 39.7799 13.84C35.7112 14.0107 31.6604 14.4786 27.6599 15.24V15.24C31.6691 13.3313 35.9226 11.9852 40.2999 11.24C39.5399 10.19 33.3799 6.84999 31.8499 6.23999C36.7299 6.61999 42.6899 8.43999 45.5799 10.24C47.0298 9.89466 48.5104 9.69369 49.9999 9.63999V9.63999C49.4684 10.8593 48.5372 11.861 47.3599 12.48V12.48C47.9399 14.02 46.5599 22.48 45.4299 24.72C45.3999 21.17 45.0899 16.7 43.7599 14.76Z" fill="white"/>
<path d="M18.4001 45.11C16.5322 44.4578 14.8269 43.4107 13.4001 42.04C13.8675 40.7521 14.503 39.5315 15.2901 38.41V38.41C13.6701 38.65 12.4801 38.83 11.0801 39.1C9.98728 37.0446 9.23422 34.826 8.85011 32.53V32.53C8.49556 34.8834 8.49556 37.2766 8.85011 39.63V39.63C7.74063 39.9204 6.65697 40.3017 5.61011 40.77V40.77C6.99103 41.6428 8.42366 42.4309 9.90011 43.13V43.13C10.6833 44.8796 11.8009 46.4592 13.1901 47.78V47.78C12.8446 46.6304 12.7424 45.4214 12.8901 44.23V44.23C14.6783 44.7723 16.532 45.0683 18.4001 45.11V45.11Z" fill="white"/>
<path d="M23.5801 17C22.9081 17.9164 22.3756 18.9274 22.0001 20V20C25.27 20.5002 28.4116 21.6312 31.2501 23.33V23.33C28.4508 22.7414 25.5818 22.5562 22.7301 22.78V22.78C22.0492 22.7913 21.3743 22.9094 20.7301 23.13V23.13C19.8326 25.4553 19.1823 27.8686 18.7901 30.33V30.33C17.9701 28.33 16.7901 24.42 16.7901 24.42C14.5301 25.63 9.32007 30.53 9.32007 30.53C10.7519 27.4403 12.7036 24.6193 15.0901 22.19V22.19C14.0901 21.19 11.4701 20.67 9.55007 20.59C11.3355 20.0188 13.1878 19.6826 15.0601 19.59V19.59C16.1104 19.5524 17.162 19.5724 18.2101 19.65V19.65C19.8144 18.4318 21.6372 17.5323 23.5801 17V17Z" fill="white"/>
<path d="M29 41.55C28.16 42.7015 27.2622 43.8096 26.31 44.87V44.87C24.7544 45.3241 23.1404 45.5465 21.52 45.53V45.53C22.5017 46.0322 23.5484 46.3956 24.63 46.6101V46.6101C23.7006 47.4766 22.6968 48.2596 21.63 48.9501V48.9501C23.6488 48.4961 25.5943 47.7623 27.41 46.7701V46.7701C28.1961 46.811 28.9843 46.7641 29.76 46.6301C29.5924 46.0957 29.4588 45.5513 29.36 45V45C30.8254 43.8657 32.2088 42.6293 33.5 41.3V41.3C32.1387 42.2711 30.6929 43.1178 29.18 43.8301V43.8301C29.1 43.0601 29.06 42.41 29 41.55Z" fill="white"/>
<path d="M70.2399 8.53996C70.3599 10.54 70.4799 15.74 70.4799 17.63C70.4799 19.52 70.4799 25.17 70.1699 27.63V27.83H79.2399C83.6999 27.83 88.4099 26.44 88.4099 22.48C88.4099 20 86.6199 18.17 83.2599 17.17C85.7499 16.5 87.4099 14.8 87.4099 12.86C87.4099 9.62996 83.6999 8.40996 80.2099 8.32996H70.2099L70.2399 8.53996ZM77.2399 10.54C81.0199 10.54 82.4099 11.34 82.4099 13.4C82.4231 13.9324 82.2418 14.4515 81.8999 14.86C81.3781 15.3321 80.7562 15.68 80.0807 15.8774C79.4053 16.0748 78.6939 16.1167 77.9999 16H77.9099L76.8199 18.8H77.8799C78.7636 18.7146 79.6552 18.8264 80.4904 19.1273C81.3257 19.4282 82.0837 19.9107 82.7099 20.54C83.1284 21.0389 83.3584 21.6688 83.3599 22.32C83.3599 24.47 81.4699 25.58 77.7199 25.58C77.0899 25.58 76.0699 25.58 75.4299 25.58C75.3199 22.71 75.2699 18.82 75.2699 17.65C75.2699 16.29 75.3599 13.27 75.4299 10.65C76.0315 10.5526 76.6406 10.5091 77.2499 10.52L77.2399 10.54Z" fill="white"/>
<path d="M109.33 8.35999H104.92L105.1 13.28C105.18 15.71 105.27 18.21 105.44 20.64C104.946 19.5298 104.31 18.4879 103.55 17.54C103.55 17.47 98.9599 10.42 97.3699 8.40999H92.1899V8.58999C92.3499 10.59 92.4199 15.79 92.4199 17.68C92.4199 19.57 92.4199 25.22 92.1799 27.68V27.88H96.7399V27.68C96.4799 22.92 96.4799 18.12 96.4799 13.46C96.71 14.2257 97.0758 14.9438 97.5599 15.58C97.6199 15.71 105.48 27.15 105.86 27.8V27.88H109.51V27.68C109.23 25.18 109.21 19.37 109.21 17.68C109.21 15.99 109.33 10.68 109.45 8.58999L109.51 8.40999L109.33 8.35999Z" fill="white"/>
<path d="M114.6 8.54005C114.78 10.54 114.85 15.74 114.85 17.63C114.85 19.52 114.85 25.17 114.58 27.63V27.83H120V27.63C119.82 25.83 119.72 22.39 119.7 19.77L120.7 19.82H121.47C128.61 19.82 132.08 17.93 132.08 13.95C132.08 9.43005 127.21 8.39005 123.14 8.30005H114.6V8.54005ZM121.29 10.71C123.84 10.71 125.61 11.18 126.45 12.25C126.854 12.7463 127.067 13.3706 127.05 14.01C127.05 16.83 123.87 17.44 121.22 17.44L120.14 17.38H119.7C119.7 16.73 119.7 15.87 119.7 14.91C119.7 13.68 119.7 12.23 119.76 10.91C120.268 10.8087 120.783 10.7419 121.3 10.71H121.29Z" fill="white"/>
<path d="M142.46 8.53998C142.63 10.54 142.73 15.74 142.73 17.63C142.73 19.52 142.73 25.17 142.43 27.63V27.83H147.86V27.63C147.69 25.83 147.59 22.39 147.59 19.77L148.59 19.82H149.38C156.46 19.87 160 18 160 14C160 9.47998 155.1 8.43998 151 8.34998H142.47L142.46 8.53998ZM149.14 10.71C151.69 10.71 153.46 11.18 154.32 12.25C154.723 12.7459 154.933 13.3712 154.91 14.01C154.91 16.83 151.74 17.44 149.12 17.44L148 17.38H147.55C147.55 16.73 147.55 15.86 147.55 14.91C147.55 13.67 147.55 12.23 147.6 10.91C148.108 10.8064 148.622 10.7396 149.14 10.71V10.71Z" fill="white"/>
<path d="M167.23 8.36004H167.16V8.46004C166.16 11.23 159.64 25.46 158.61 27.62L158.52 27.86H163.14V27.75C163.55 26.41 164.14 24.9 164.69 23.29L168.55 23.23H171.74H172.41C173.23 25.33 173.86 26.91 174.14 27.71L174.19 27.79H179.55L170.89 8.29004H167.22L167.23 8.36004ZM168.55 14.11C168.98 15.04 170.1 17.63 171.36 20.72H170.92H168.55H165.68C166.71 18.24 167.72 16 168.55 14.1V14.11Z" fill="white"/>
<path d="M181.73 8.53997C181.88 10.54 181.96 15.74 181.96 17.63C181.96 19.52 181.96 25.17 181.66 27.63V27.83H187.12V27.63C186.83 25.11 186.81 19.32 186.81 17.63C186.81 16.27 186.81 13.25 186.99 10.81C187.4 10.81 187.99 10.72 188.46 10.72C190.99 10.72 192.77 11.19 193.61 12.26C194.011 12.7564 194.217 13.3822 194.19 14.02C194.19 16.27 192.09 17.41 190.13 17.52C189.746 17.5369 189.36 17.5168 188.98 17.46L188.6 17.4L188.81 17.76C190.75 20.59 193.65 25.48 194.81 27.76V27.84H200.64L200.49 27.58C200.25 27.25 196.49 21.66 194.84 19.27L194.7 19.13C197.7 18.23 199.14 16.56 199.14 13.99C199.14 9.49997 194.27 8.42997 190.14 8.33997H181.64L181.73 8.53997Z" fill="white"/>
<path d="M208.42 8.35999H203.22V8.53999C203.35 10.54 203.46 15.74 203.46 17.63C203.46 19.36 203.46 25.15 203.19 27.63V27.83H208.58V27.63C208.37 25.11 208.31 19.32 208.31 17.63C208.31 15.75 208.44 10.63 208.58 8.53999V8.35999H208.42Z" fill="white"/>
<path d="M213.51 8.53996C213.67 10.54 213.76 15.74 213.76 17.63C213.76 19.52 213.76 25.17 213.49 27.63V27.83H222.57C227.01 27.83 231.74 26.44 231.74 22.48C231.74 20 229.94 18.17 226.56 17.17C229.05 16.5 230.73 14.8 230.73 12.86C230.73 9.62996 227.01 8.40996 223.55 8.32996H213.55L213.51 8.53996ZM220.51 10.54C224.32 10.54 225.71 11.34 225.71 13.4C225.725 13.9345 225.54 14.4554 225.19 14.86C224.5 15.73 223.04 16.18 221.25 16.07H221.16L220.16 18.82H221.16C222.043 18.7292 222.935 18.8355 223.772 19.1312C224.609 19.4269 225.37 19.9047 226 20.53C226.434 21.0209 226.673 21.6545 226.67 22.31C226.67 24.46 224.77 25.57 221.01 25.57C220.41 25.57 219.39 25.57 218.75 25.57C218.59 22.7 218.59 18.81 218.59 17.64C218.59 16.28 218.59 13.26 218.75 10.64C219.332 10.547 219.921 10.5069 220.51 10.52V10.54Z" fill="white"/>
<path d="M245.05 8.35997H241.4V8.44998C240.31 11.45 233.4 26.37 232.85 27.6L232.75 27.86H237.4V27.74C237.79 26.4 238.33 24.9 238.93 23.26L242.77 23.2L245.97 23.25H246.65C247.49 25.34 248.11 26.94 248.39 27.73V27.85H253.77L245.12 8.34998L245.05 8.35997ZM242.81 14.09C243.25 15 244.36 17.59 245.62 20.69H245.19H242.81L240 20.7C241 18.21 242 16 242.81 14.09Z" fill="white"/>
<path d="M255.34 13.4C255.34 16.83 258.77 18.2 261.81 19.47C264.17 20.42 266.65 21.41 266.65 23.04C266.684 23.4742 266.547 23.9044 266.27 24.24C265.7 24.91 264.55 25.24 262.72 25.09C260.58 24.9259 258.491 24.3486 256.57 23.39L255.67 22.96V27.2L256.28 27.35L256.64 27.41C258.436 27.8908 260.282 28.1593 262.14 28.21C267.87 28.21 271.29 25.92 271.29 22.15C271.29 18.6 267.76 17.22 264.64 15.98C262.34 15.05 259.96 14.13 259.96 12.61C259.96 12.17 259.96 10.89 262.96 10.89C264.867 11.0007 266.737 11.4582 268.48 12.24L269.58 12.7V8.44002L268.49 8.24002C266.887 7.88314 265.252 7.68552 263.61 7.65002C258.64 7.65002 255.34 10 255.34 13.4Z" fill="white"/>
<path d="M77.6401 35V36.84H72.4301V40.47H77.4301V42.18H72.4301V46H77.9201V47.84H70.3401V35H77.6401Z" fill="#03A776"/>
<path d="M82.86 34V45.57C82.8454 45.6688 82.8539 45.7696 82.8846 45.8646C82.9153 45.9596 82.9675 46.0463 83.0372 46.1178C83.1068 46.1894 83.192 46.244 83.2861 46.2773C83.3803 46.3106 83.4808 46.3218 83.58 46.31C84.0162 46.3144 84.4464 46.2077 84.83 46L85 47.51C84.3446 47.8851 83.6049 48.0881 82.85 48.1C81.13 48.1 80.7 46.9 80.7 45.61V34.41L82.86 34Z" fill="#03A776"/>
<path d="M97.08 35C100.6 35 102.49 36.86 102.49 41.26C102.49 46.01 100.38 47.89 97.02 47.89H92.73V35H97.08ZM94.82 46H96.95C99.04 46 100.33 45 100.33 41.23C100.33 37.8 99.09 36.79 96.95 36.79H94.82V46Z" fill="#03A776"/>
<path d="M107.36 49.35C107.366 49.6872 107.3 50.0219 107.167 50.3319C107.034 50.6419 106.837 50.92 106.588 51.1479C106.34 51.3758 106.045 51.5482 105.725 51.6537C105.405 51.7592 105.065 51.7955 104.73 51.76C104.033 51.7552 103.347 51.5838 102.73 51.26L103.06 49.66C103.443 49.8395 103.857 49.9447 104.28 49.97C104.415 49.9861 104.552 49.9713 104.681 49.9267C104.81 49.8821 104.926 49.8089 105.023 49.7127C105.119 49.6164 105.192 49.4995 105.237 49.3709C105.281 49.2423 105.296 49.1052 105.28 48.97V38.08H107.39L107.36 49.35ZM107.36 34.6V36.77H105.25V34.6H107.36Z" fill="#03A776"/>
<path d="M115.26 40.8001C115.26 39.8801 114.62 39.5101 113.75 39.5101C113.54 39.486 113.328 39.5067 113.127 39.5707C112.927 39.6347 112.742 39.7407 112.585 39.8815C112.428 40.0223 112.303 40.1949 112.217 40.3877C112.132 40.5805 112.089 40.7892 112.09 41.0001L110.24 40.8101C110.3 38.8101 111.96 37.8101 113.89 37.8101C116.02 37.8101 117.37 38.8101 117.37 40.5901V45.6901C117.37 46.1501 117.6 46.3501 117.93 46.3501C118.296 46.3267 118.645 46.1904 118.93 45.9601L119.06 47.4201C118.569 47.854 117.935 48.0893 117.28 48.0801C117.076 48.1036 116.87 48.0866 116.673 48.0298C116.476 47.973 116.292 47.8777 116.132 47.7493C115.972 47.621 115.839 47.4621 115.741 47.282C115.643 47.1019 115.581 46.9041 115.56 46.7001C115.161 47.1268 114.679 47.4689 114.145 47.7059C113.611 47.943 113.034 48.0702 112.45 48.0801C112.101 48.1042 111.751 48.0528 111.424 47.9292C111.097 47.8057 110.8 47.613 110.554 47.3642C110.308 47.1155 110.119 46.8166 109.999 46.4879C109.879 46.1593 109.832 45.8087 109.86 45.4601C109.86 42.9801 112.28 41.8701 115.25 41.8901L115.26 40.8001ZM115.26 43.4301C113.35 43.3701 111.93 44.0201 111.93 45.2101C111.912 45.3711 111.931 45.5342 111.985 45.6869C112.039 45.8397 112.128 45.9781 112.243 46.0917C112.359 46.2054 112.499 46.2913 112.652 46.343C112.806 46.3947 112.969 46.4108 113.13 46.3901C113.538 46.3627 113.937 46.254 114.303 46.0702C114.669 45.8865 114.994 45.6314 115.26 45.3201V43.4301Z" fill="#03A776"/>
<path d="M128.18 38.08V39.35L123.18 46.22H128.25V47.86H120.54V46.64L125.54 39.72H120.63V38.08H128.18Z" fill="#03A776"/>
<path d="M135.32 40.8001C135.32 39.8801 134.68 39.5101 133.81 39.5101C133.601 39.486 133.388 39.5067 133.187 39.5707C132.987 39.6347 132.802 39.7407 132.645 39.8815C132.488 40.0223 132.363 40.1949 132.277 40.3877C132.192 40.5805 132.149 40.7892 132.15 41.0001L130.29 40.8101C130.35 38.8101 132.01 37.8101 133.94 37.8101C136.07 37.8101 137.42 38.8101 137.42 40.5901V45.6901C137.42 46.1501 137.65 46.3501 137.98 46.3501C138.346 46.3267 138.695 46.1904 138.98 45.9601L139.11 47.4201C138.62 47.854 137.985 48.0893 137.33 48.0801C137.126 48.1036 136.92 48.0866 136.723 48.0298C136.526 47.973 136.342 47.8777 136.182 47.7493C136.022 47.621 135.889 47.4621 135.791 47.282C135.693 47.1019 135.631 46.9041 135.61 46.7001C135.211 47.1268 134.729 47.4689 134.195 47.7059C133.661 47.943 133.084 48.0702 132.5 48.0801C132.151 48.1042 131.801 48.0528 131.474 47.9292C131.147 47.8057 130.85 47.613 130.604 47.3642C130.358 47.1155 130.169 46.8166 130.049 46.4879C129.929 46.1593 129.882 45.8087 129.91 45.4601C129.91 42.9801 132.33 41.8701 135.3 41.8901L135.32 40.8001ZM135.32 43.4301C133.41 43.3701 131.99 44.0201 131.99 45.2101C131.972 45.3711 131.991 45.5342 132.045 45.6869C132.099 45.8397 132.188 45.9781 132.303 46.0917C132.419 46.2054 132.559 46.2913 132.712 46.343C132.866 46.3947 133.029 46.4108 133.19 46.3901C133.598 46.3627 133.997 46.254 134.363 46.0702C134.729 45.8865 135.054 45.6314 135.32 45.3201V43.4301Z" fill="#03A776"/>
<path d="M141.41 34.54V36.44H139.69V34.54H141.41ZM143.13 38.08V47.86H141V38.08H143.13ZM144.48 34.54V36.44H142.76V34.54H144.48Z" fill="#03A776"/>
<path d="M148.31 38.08V39.2C148.63 38.7882 149.037 38.4527 149.502 38.2175C149.967 37.9823 150.479 37.8533 151 37.84C152.53 37.84 152.87 39.2 152.87 40.64L151 40.8C151 40.21 150.92 39.8 150.34 39.8C149.672 39.9338 149.067 40.2855 148.62 40.8V47.8H146.51V38.08H148.31Z" fill="#03A776"/>
<defs>
<linearGradient id="paint0_linear_101_32" x1="28.06" y1="-1.38" x2="28.06" y2="57.87" gradientUnits="userSpaceOnUse">
<stop stop-color="#00774A"/>
<stop offset="0.6" stop-color="#8AC9AD"/>
<stop offset="1" stop-color="#00965F"/>
</linearGradient>
<linearGradient id="paint1_linear_101_32" x1="27.9701" y1="-13.94" x2="27.9701" y2="52.64" gradientUnits="userSpaceOnUse">
<stop stop-color="#00965F"/>
<stop offset="0.3" stop-color="#8AC9AD"/>
<stop offset="0.55" stop-color="#00965F"/>
<stop offset="0.84" stop-color="#00774A"/>
<stop offset="0.89" stop-color="#008053"/>
<stop offset="0.98" stop-color="#00986A"/>
<stop offset="1" stop-color="#009E70"/>
</linearGradient>
<linearGradient id="paint2_linear_101_32" x1="38.64" y1="48.96" x2="38.64" y2="5.87999" gradientUnits="userSpaceOnUse">
<stop stop-color="#00A87C"/>
<stop offset="1" stop-color="#00965F"/>
</linearGradient>
<linearGradient id="paint3_linear_101_32" x1="11.91" y1="48.96" x2="11.91" y2="5.85999" gradientUnits="userSpaceOnUse">
<stop stop-color="#00A87C"/>
<stop offset="1" stop-color="#00965F"/>
</linearGradient>
<linearGradient id="paint4_linear_101_32" x1="20.2299" y1="48.9501" x2="20.2299" y2="5.88006" gradientUnits="userSpaceOnUse">
<stop stop-color="#00A87C"/>
<stop offset="1" stop-color="#00965F"/>
</linearGradient>
<linearGradient id="paint5_linear_101_32" x1="27.4301" y1="48.96" x2="27.4301" y2="5.87002" gradientUnits="userSpaceOnUse">
<stop stop-color="#00A87C"/>
<stop offset="1" stop-color="#00965F"/>
</linearGradient>
</defs>
</svg>
