<svg width="18" height="20" viewBox="0 0 18 20" fill="none" xmlns="http://www.w3.org/2000/svg">
<path d="M11 9.5C11.3283 9.5 11.6534 9.43534 11.9567 9.3097C12.26 9.18406 12.5356 8.99991 12.7678 8.76777C12.9999 8.53562 13.1841 8.26002 13.3097 7.95671C13.4353 7.65339 13.5 7.3283 13.5 7C13.5 6.33696 13.2366 5.70107 12.7678 5.23223C12.2989 4.76339 11.663 4.5 11 4.5C10.337 4.5 9.70107 4.76339 9.23223 5.23223C8.76339 5.70107 8.5 6.33696 8.5 7C8.5 7.3283 8.56466 7.65339 8.6903 7.95671C8.81594 8.26002 9.00009 8.53562 9.23223 8.76777C9.70107 9.23661 10.337 9.5 11 9.5ZM11 0C14.86 0 18 3.13 18 7C18 12.25 11 20 11 20C11 20 4 12.25 4 7C4 5.14348 4.7375 3.36301 6.05025 2.05025C7.36301 0.737498 9.14348 0 11 0ZM2 7C2 11.5 7.08 17.66 8 18.81L7 20C7 20 0 12.25 0 7C0 3.83 2.11 1.15 5 0.29C3.16 1.94 2 4.33 2 7Z" fill="#0FA958"/>
</svg>
