<svg width="21" height="78" viewBox="0 0 21 78" fill="none" xmlns="http://www.w3.org/2000/svg">
<path d="M0 0C8.56489 7.62888 19.3138 8.93704 21 20V59C20.6989 68.1882 9.6245 69.9769 0 78V0Z" fill="#D9D9D9"/>
<path d="M8.3871 33.242L13.8226 38.6613C13.8871 38.7258 13.9327 38.7957 13.9594 38.871C13.9865 38.9463 14 39.0269 14 39.1129C14 39.1989 13.9865 39.2796 13.9594 39.3549C13.9327 39.4301 13.8871 39.5 13.8226 39.5645L8.3871 45C8.23656 45.1506 8.04839 45.2258 7.82258 45.2258C7.59677 45.2258 7.40322 45.1452 7.24193 44.9839C7.08064 44.8226 7 44.6344 7 44.4194C7 44.2043 7.08064 44.0162 7.24193 43.8549L11.9839 39.1129L7.24193 34.371C7.0914 34.2205 7.01613 34.0351 7.01613 33.8149C7.01613 33.5942 7.09677 33.4032 7.25806 33.242C7.41935 33.0807 7.60753 33 7.82258 33C8.03763 33 8.22581 33.0807 8.3871 33.242Z" fill="#0FA958"/>
</svg>
